<?xml version="1.0" encoding="UTF-8" standalone="no"?>
<svg
   enable-background="new 0 0 66 66"
   viewBox="0 0 58.389999 56.790001"
   x="0px"
   y="0px"
   version="1.1"
   id="svg120"
   sodipodi:docname="appart-icon.svg"
   width="58.389999"
   height="56.790001"
   inkscape:version="1.2.2 (b0a84865, 2022-12-01)"
   xmlns:inkscape="http://www.inkscape.org/namespaces/inkscape"
   xmlns:sodipodi="http://sodipodi.sourceforge.net/DTD/sodipodi-0.dtd"
   xmlns="http://www.w3.org/2000/svg"
   xmlns:svg="http://www.w3.org/2000/svg">
  <defs
     id="defs124" />
  <sodipodi:namedview
     id="namedview122"
     pagecolor="#ffffff"
     bordercolor="#000000"
     borderopacity="0.25"
     inkscape:showpageshadow="2"
     inkscape:pageopacity="0.0"
     inkscape:pagecheckerboard="0"
     inkscape:deskcolor="#d1d1d1"
     showgrid="false"
     inkscape:zoom="2.3103153"
     inkscape:cx="-27.701847"
     inkscape:cy="29.433212"
     inkscape:window-width="1398"
     inkscape:window-height="456"
     inkscape:window-x="0"
     inkscape:window-y="25"
     inkscape:window-maximized="0"
     inkscape:current-layer="g114" />
  <g
     id="g114"
     transform="translate(-3.8,-4.61)">
    <path
       d="m 61.53,60.05 h -4.01 v -2.5 c 1.27,-0.3 2.23,-1.44 2.23,-2.81 0,-1.6 -1.3,-4.8 -2.89,-4.8 -1.6,0 -2.9,3.2 -2.9,4.8 0,1.37 0.95,2.51 2.23,2.81 v 2.5 H 50.48 V 25.19 h 2.02 c 0.37,0 0.67,-0.3 0.67,-0.67 v -3.88 c 0,-0.37 -0.3,-0.67 -0.67,-0.67 H 46.41 V 9.38 h 1.54 c 0.37,0 0.67,-0.3 0.67,-0.67 V 5.28 c 0,-0.37 -0.3,-0.67 -0.67,-0.67 H 18.07 c -0.37,0 -0.67,0.3 -0.67,0.67 v 3.43 c 0,0.37 0.3,0.67 0.67,0.67 h 1.54 v 10.59 h -6.1 c -0.37,0 -0.67,0.3 -0.67,0.67 v 3.88 c 0,0.37 0.3,0.67 0.67,0.67 h 2.02 V 60.06 H 9.82 v -2.5 c 1.27,-0.3 2.22,-1.44 2.22,-2.81 0,-1.6 -1.3,-4.8 -2.89,-4.8 -1.6,0 -2.9,3.2 -2.9,4.8 0,1.37 0.95,2.51 2.23,2.81 v 2.5 H 4.47 c -0.37,0 -0.67,0.3 -0.67,0.67 0,0.37 0.3,0.67 0.67,0.67 h 57.05 c 0.37,0 0.67,-0.3 0.67,-0.67 0,-0.38 -0.3,-0.68 -0.66,-0.68 z M 39,60.05 H 33.67 V 51.24 H 39 Z m -12,-8.8 h 5.33 v 8.81 H 27 Z M 18.74,5.95 h 28.52 v 2.1 H 18.74 Z m 2.21,3.43 h 24.1 v 10.59 h -24.1 z m -6.77,11.93 h 37.63 v 2.54 H 14.18 Z m 2.69,3.88 h 32.25 v 34.87 h -8.79 v -8.81 h 1.83 c 0.37,0 0.67,-0.3 0.67,-0.67 0,-0.37 -0.3,-0.67 -0.67,-0.67 H 23.84 c -0.37,0 -0.67,0.3 -0.67,0.67 0,0.37 0.3,0.67 0.67,0.67 h 1.83 v 8.81 H 16.88 V 25.19 Z"
       id="path80"
       style="fill:#f2f2f2;fill-opacity:1" />
    <path
       d="m 27.03,27.21 h 4.89 v 5.08 h -4.89 z"
       id="path82"
       style="fill:#f2f2f2;fill-opacity:1" />
    <path
       d="m 34.07,27.21 h 4.89 v 5.08 h -4.89 z"
       id="path84"
       style="fill:#f2f2f2;fill-opacity:1" />
    <path
       d="m 20,27.21 h 4.89 v 5.08 H 20 Z"
       id="path86"
       style="fill:#f2f2f2;fill-opacity:1" />
    <path
       d="m 41.1,27.21 h 4.89 v 5.08 H 41.1 Z"
       id="path88"
       style="fill:#f2f2f2;fill-opacity:1" />
    <path
       d="m 27.03,34.35 h 4.89 v 5.08 h -4.89 z"
       id="path90"
       style="fill:#f2f2f2;fill-opacity:1" />
    <path
       d="m 34.07,34.35 h 4.89 v 5.08 h -4.89 z"
       id="path92"
       style="fill:#f2f2f2;fill-opacity:1" />
    <path
       d="m 20,34.35 h 4.89 v 5.08 H 20 Z"
       id="path94"
       style="fill:#f2f2f2;fill-opacity:1" />
    <path
       d="m 41.1,34.35 h 4.89 v 5.08 H 41.1 Z"
       id="path96"
       style="fill:#f2f2f2;fill-opacity:1" />
    <path
       d="m 27.03,41.49 h 4.89 v 5.08 h -4.89 z"
       id="path98"
       style="fill:#f2f2f2;fill-opacity:1" />
    <path
       d="m 34.07,41.49 h 4.89 v 5.08 h -4.89 z"
       id="path100"
       style="fill:#f2f2f2;fill-opacity:1" />
    <path
       d="m 20,41.49 h 4.89 v 5.08 H 20 Z"
       id="path102"
       style="fill:#f2f2f2;fill-opacity:1" />
    <path
       d="m 41.1,41.49 h 4.89 v 5.08 H 41.1 Z"
       id="path104"
       style="fill:#f2f2f2;fill-opacity:1" />
    <path
       d="m 23.41,10.74 h 3.34 v 7.86 h -3.34 z"
       id="path106"
       style="fill:#f2f2f2;fill-opacity:1" />
    <path
       d="m 28.69,10.74 h 3.34 v 7.86 h -3.34 z"
       id="path108"
       style="fill:#f2f2f2;fill-opacity:1" />
    <path
       d="m 33.97,10.74 h 3.34 v 7.86 h -3.34 z"
       id="path110"
       style="fill:#f2f2f2;fill-opacity:1" />
    <path
       d="m 39.25,10.74 h 3.34 v 7.86 h -3.34 z"
       id="path112"
       style="fill:#f2f2f2;fill-opacity:1" />
  </g>
</svg>
