<?xml version="1.0" encoding="UTF-8" standalone="no"?>
<svg
   version="1.1"
   x="0px"
   y="0px"
   viewBox="0 0 48.560429 41.599998"
   enable-background="new 0 0 85 85"
   xml:space="preserve"
   id="svg554"
   sodipodi:docname="arrows.svg"
   width="48.560429"
   height="41.599998"
   inkscape:version="1.2.2 (b0a84865, 2022-12-01)"
   xmlns:inkscape="http://www.inkscape.org/namespaces/inkscape"
   xmlns:sodipodi="http://sodipodi.sourceforge.net/DTD/sodipodi-0.dtd"
   xmlns="http://www.w3.org/2000/svg"
   xmlns:svg="http://www.w3.org/2000/svg"><defs
     id="defs558" /><sodipodi:namedview
     id="namedview556"
     pagecolor="#ffffff"
     bordercolor="#000000"
     borderopacity="0.25"
     inkscape:showpageshadow="2"
     inkscape:pageopacity="0.0"
     inkscape:pagecheckerboard="0"
     inkscape:deskcolor="#d1d1d1"
     showgrid="false"
     inkscape:zoom="2.2211765"
     inkscape:cx="12.831038"
     inkscape:cy="31.514831"
     inkscape:window-width="1440"
     inkscape:window-height="456"
     inkscape:window-x="0"
     inkscape:window-y="25"
     inkscape:window-maximized="0"
     inkscape:current-layer="svg554" /><g
     id="g548"
     transform="translate(-18.306364,-21.7)"
     style="fill:#ffffff"><path
       d="M 66.3,34.5 56.7,22.6 c 0,0 0,0 -0.1,-0.1 -0.1,-0.1 -0.2,-0.2 -0.3,-0.3 0,0 0,0 0,0 -0.4,-0.3 -0.9,-0.5 -1.5,-0.5 -0.6,0 -1.1,0.2 -1.5,0.5 0,0 0,0 0,0 -0.1,0.1 -0.2,0.2 -0.3,0.3 0,0 0,0 -0.1,0.1 l -9.6,11.9 c -0.8,1 -0.7,2.6 0.4,3.4 1,0.8 2.6,0.7 3.4,-0.4 L 52.4,31 v 29.8 c 0,1.3 1.1,2.4 2.4,2.4 1.3,0 2.4,-1.1 2.4,-2.4 V 31.1 l 5.3,6.5 c 0.5,0.6 1.2,0.9 1.9,0.9 0.5,0 1.1,-0.2 1.5,-0.5 1.1,-0.9 1.3,-2.4 0.4,-3.5 z"
       id="path544"
       style="fill:#ffffff" /><path
       d="M 41.4,47.1 C 40.3,46.3 38.8,46.4 38,47.5 L 32.7,54 V 24.2 c 0,-1.3 -1.1,-2.4 -2.4,-2.4 -1.3,0 -2.4,1.1 -2.4,2.4 V 54 l -5.3,-6.5 c -0.8,-1 -2.4,-1.2 -3.4,-0.4 -1,0.8 -1.2,2.4 -0.4,3.4 l 9.6,11.9 c 0,0 0.1,0 0.1,0.1 0.1,0.1 0.1,0.2 0.2,0.2 0,0 0.1,0.1 0.1,0.1 0.1,0.1 0.2,0.1 0.3,0.2 0.1,0 0.1,0.1 0.2,0.1 0.1,0.1 0.2,0.1 0.4,0.1 0,0 0.1,0 0.1,0 0.2,0 0.3,0.1 0.5,0.1 0.2,0 0.4,0 0.5,-0.1 0,0 0.1,0 0.1,0 0.1,0 0.2,-0.1 0.4,-0.1 0.1,0 0.1,-0.1 0.2,-0.1 0.1,-0.1 0.2,-0.1 0.3,-0.2 0.1,0 0.1,-0.1 0.1,-0.1 0.1,-0.1 0.2,-0.1 0.2,-0.2 0,0 0.1,0 0.1,-0.1 l 9.6,-11.9 c 0.8,-1.1 0.6,-2.6 -0.4,-3.4 z"
       id="path546"
       style="fill:#ffffff" /></g></svg>
