<?xml version="1.0" encoding="UTF-8" standalone="no"?>
<svg
   viewBox="0 0 20 16"
   x="0px"
   y="0px"
   version="1.1"
   id="svg704"
   sodipodi:docname="arrow-down.svg"
   width="20"
   height="16"
   inkscape:version="1.2.2 (b0a84865, 2022-12-01)"
   xmlns:inkscape="http://www.inkscape.org/namespaces/inkscape"
   xmlns:sodipodi="http://sodipodi.sourceforge.net/DTD/sodipodi-0.dtd"
   xmlns="http://www.w3.org/2000/svg"
   xmlns:svg="http://www.w3.org/2000/svg"
   xmlns:rdf="http://www.w3.org/1999/02/22-rdf-syntax-ns#"
   xmlns:cc="http://creativecommons.org/ns#"
   xmlns:dc="http://purl.org/dc/elements/1.1/">
  <defs
     id="defs708" />
  <sodipodi:namedview
     id="namedview706"
     pagecolor="#ffffff"
     bordercolor="#000000"
     borderopacity="0.25"
     inkscape:showpageshadow="2"
     inkscape:pageopacity="0.0"
     inkscape:pagecheckerboard="0"
     inkscape:deskcolor="#d1d1d1"
     showgrid="false"
     inkscape:zoom="7.8666667"
     inkscape:cx="9.9152542"
     inkscape:cy="11.059322"
     inkscape:window-width="1398"
     inkscape:window-height="456"
     inkscape:window-x="0"
     inkscape:window-y="25"
     inkscape:window-maximized="0"
     inkscape:current-layer="svg704" />
  <title
     id="title694">line,chart,down,arrow,graph</title>
  <path
     d="m 19,5 a 1,1 0 0 0 -1,1 v 2.59 l -4.29,-4.3 a 1,1 0 0 0 -1.41,0 L 10,6.59 5.71,2.29 A 1.0040916,1.0040916 0 0 0 4.29,3.71 l 5,5 a 1,1 0 0 0 1.41,0 L 13,6.41 16.59,10 H 14 a 1,1 0 0 0 0,2 h 5 a 1,1 0 0 0 1,-1 V 6 A 1,1 0 0 0 19,5 Z"
     id="path696"
     style="fill:#d40000" />
  <path
     d="M 19,14 H 2 V 1 A 1,1 0 0 0 0,1 v 14 a 1,1 0 0 0 1,1 h 18 a 1,1 0 0 0 0,-2 z"
     id="path698"
     style="fill:#d40000" />
  <text
     x="-2"
     y="35"
     fill="#000000"
     font-size="5px"
     font-weight="bold"
     font-family="'Helvetica Neue', Helvetica, Arial-Unicode, Arial, Sans-serif"
     id="text700">Created by IconSrc</text>
  <text
     x="-2"
     y="40"
     fill="#000000"
     font-size="5px"
     font-weight="bold"
     font-family="'Helvetica Neue', Helvetica, Arial-Unicode, Arial, Sans-serif"
     id="text702">from the Noun Project</text>
  <metadata
     id="metadata777">
    <rdf:RDF>
      <cc:Work
         rdf:about="">
        <dc:title>line,chart,down,arrow,graph</dc:title>
      </cc:Work>
    </rdf:RDF>
  </metadata>
</svg>
