<?xml version="1.0" encoding="UTF-8" standalone="no"?>
<svg
   data-name="Layer 1"
   viewBox="0 0 65.20752 56.980507"
   x="0px"
   y="0px"
   version="1.1"
   id="svg12"
   sodipodi:docname="back-icon.svg"
   width="65.20752"
   height="56.980507"
   inkscape:version="1.2.2 (b0a84865, 2022-12-01)"
   xmlns:inkscape="http://www.inkscape.org/namespaces/inkscape"
   xmlns:sodipodi="http://sodipodi.sourceforge.net/DTD/sodipodi-0.dtd"
   xmlns="http://www.w3.org/2000/svg"
   xmlns:svg="http://www.w3.org/2000/svg"
   xmlns:rdf="http://www.w3.org/1999/02/22-rdf-syntax-ns#"
   xmlns:cc="http://creativecommons.org/ns#"
   xmlns:dc="http://purl.org/dc/elements/1.1/">
  <defs
     id="defs16" />
  <sodipodi:namedview
     id="namedview14"
     pagecolor="#ffffff"
     bordercolor="#000000"
     borderopacity="0.25"
     inkscape:showpageshadow="2"
     inkscape:pageopacity="0.0"
     inkscape:pagecheckerboard="0"
     inkscape:deskcolor="#d1d1d1"
     showgrid="false"
     inkscape:zoom="1.888"
     inkscape:cx="32.574153"
     inkscape:cy="41.313559"
     inkscape:window-width="1440"
     inkscape:window-height="456"
     inkscape:window-x="0"
     inkscape:window-y="25"
     inkscape:window-maximized="0"
     inkscape:current-layer="svg12" />
  <title
     id="title2">74</title>
  <g
     data-name="Group"
     id="g6"
     transform="translate(-16.7,-21.419491)"
     style="fill:#000000">
    <path
       data-name="Path"
       d="M 61.1,33.9 H 31.2 l 5.6,-5.6 A 4.0305087,4.0305087 0 0 0 31.1,22.6 L 18.7,35.1 a 4,4 0 0 0 0,5.7 l 12.4,12.4 a 4.0305087,4.0305087 0 0 0 5.7,-5.7 l -5.6,-5.6 h 29.9 a 14.3,14.3 0 0 1 0,28.5 H 20.7 a 4,4 0 0 0 0,8 h 40.4 a 22.3,22.3 0 0 0 0,-44.5 z"
       id="path4"
       style="fill:#000000" />
  </g>
  <metadata
     id="metadata1232">
    <rdf:RDF>
      <cc:Work
         rdf:about="">
        <dc:title>74</dc:title>
      </cc:Work>
    </rdf:RDF>
  </metadata>
</svg>
