<?xml version="1.0" encoding="UTF-8" standalone="no"?>
<svg
   version="1.1"
   x="0px"
   y="0px"
   viewBox="0 0 73.400002 73.900002"
   xml:space="preserve"
   id="svg12"
   sodipodi:docname="burger-ocin.svg"
   width="73.400002"
   height="73.900002"
   inkscape:version="1.2.2 (b0a84865, 2022-12-01)"
   xmlns:inkscape="http://www.inkscape.org/namespaces/inkscape"
   xmlns:sodipodi="http://sodipodi.sourceforge.net/DTD/sodipodi-0.dtd"
   xmlns="http://www.w3.org/2000/svg"
   xmlns:svg="http://www.w3.org/2000/svg"><defs
     id="defs16" /><sodipodi:namedview
     id="namedview14"
     pagecolor="#ffffff"
     bordercolor="#000000"
     borderopacity="0.25"
     inkscape:showpageshadow="2"
     inkscape:pageopacity="0.0"
     inkscape:pagecheckerboard="0"
     inkscape:deskcolor="#d1d1d1"
     showgrid="false"
     inkscape:zoom="1.888"
     inkscape:cx="36.28178"
     inkscape:cy="49.258475"
     inkscape:window-width="1440"
     inkscape:window-height="456"
     inkscape:window-x="0"
     inkscape:window-y="25"
     inkscape:window-maximized="0"
     inkscape:current-layer="svg12" /><path
     d="M 50.3,42.5 H 5.5 C 2.5,42.5 0,40 0,37 v 0 c 0,-3 2.5,-5.5 5.5,-5.5 h 44.9 c 3,0 5.5,2.5 5.5,5.5 v 0 c -0.1,3 -2.5,5.5 -5.6,5.5 z"
     id="path2"
     style="fill:#ffffff" /><path
     d="M 30.9,73.9 H 5.5 C 2.5,73.9 0,71.4 0,68.4 v 0 c 0,-3 2.5,-5.5 5.5,-5.5 h 25.4 c 3,0 5.5,2.5 5.5,5.5 v 0 c 0,3.1 -2.5,5.5 -5.5,5.5 z"
     id="path4"
     style="fill:#ffffff" /><path
     d="M 67.8,11 H 5.5 C 2.5,11 0,8.5 0,5.5 v 0 C 0,2.5 2.5,0 5.5,0 h 62.4 c 3,0 5.5,2.5 5.5,5.5 v 0 c -0.1,3 -2.5,5.5 -5.6,5.5 z"
     id="path6"
     style="fill:#ffffff" /></svg>
