<?xml version="1.0" encoding="UTF-8" standalone="no"?>
<svg
   version="1.1"
   x="0px"
   y="0px"
   viewBox="0 0 61.339966 80"
   xml:space="preserve"
   id="svg207"
   sodipodi:docname="calculate.svg"
   width="61.339966"
   height="80"
   inkscape:version="1.2.2 (b0a84865, 2022-12-01)"
   xmlns:inkscape="http://www.inkscape.org/namespaces/inkscape"
   xmlns:sodipodi="http://sodipodi.sourceforge.net/DTD/sodipodi-0.dtd"
   xmlns="http://www.w3.org/2000/svg"
   xmlns:svg="http://www.w3.org/2000/svg"><defs
     id="defs211" /><sodipodi:namedview
     id="namedview209"
     pagecolor="#ffffff"
     bordercolor="#000000"
     borderopacity="0.25"
     inkscape:showpageshadow="2"
     inkscape:pageopacity="0.0"
     inkscape:pagecheckerboard="0"
     inkscape:deskcolor="#d1d1d1"
     showgrid="false"
     inkscape:zoom="1.9666667"
     inkscape:cx="18.050847"
     inkscape:cy="51.864407"
     inkscape:window-width="1440"
     inkscape:window-height="456"
     inkscape:window-x="0"
     inkscape:window-y="25"
     inkscape:window-maximized="0"
     inkscape:current-layer="svg207" /><path
     d="M 54.669983,0 H 6.6699829 C 2.9999999,0 -1e-7,2.98999 -1e-7,6.669983 V 73.329956 C -9.9999998e-8,77.01001 2.9899899,80 6.6699829,80 H 54.669983 c 3.679993,0 6.669983,-2.98999 6.669983,-6.670044 V 6.669983 C 61.339966,2.98999 58.349976,0 54.669983,0 Z m 4,73.329956 c 0,2.210022 -1.799988,4 -4,4 H 6.6699829 c -2.200012,0 -4,-1.789978 -4,-4 V 6.669983 c 0,-2.209961 1.799988,-4 4,-4 H 54.669983 c 2.200012,0 4,1.790039 4,4 z"
     id="path169"
     style="fill:#ffffff" /><path
     d="M 52,6.669983 H 9.3399659 c -2.209961,0 -4,1.790039 -4,4 v 8 c 0,2.200012 1.790039,4 4,4 H 52 c 2.209961,0 4,-1.799988 4,-4 v -8 c 0,-2.209961 -1.790039,-4 -4,-4 z M 9.9799809,20 h -0.640015 c -0.73999,0 -1.339966,-0.599976 -1.339966,-1.330017 v -8 c 0,-0.73999 0.599976,-1.329956 1.339966,-1.329956 h 8.1000371 z m 9.9199831,0 7.460022,-10.659973 h 3.419982 L 23.309998,20 Z M 53.339966,18.669983 C 53.339966,19.400024 52.73999,20 52,20 H 37.229981 L 44.700012,9.340027 H 52 c 0.73999,0 1.339966,0.589966 1.339966,1.329956 z"
     id="path171"
     style="fill:#ffffff" /><path
     d="m 8.0036949,33.33461 h 5.3332441 c 1.470644,0 2.66662,-1.19598 2.66662,-2.666622 v -2.666622 c 0,-1.470643 -1.195976,-2.666623 -2.66662,-2.666623 H 8.0036949 c -1.470642,0 -2.666623,1.19598 -2.666623,2.666623 v 2.666622 c 0,1.470642 1.195981,2.666622 2.666623,2.666622 z m 0,-5.333244 h 5.3332441 l 0.0027,2.666622 H 8.0037289 Z"
     id="path173"
     style="fill:#ffffff" /><path
     d="M 16,38.669983 V 44 c 0,1.469971 -1.190002,2.669983 -2.660034,2.669983 H 7.9999999 c -1.470032,0 -2.660034,-1.200012 -2.660034,-2.669983 V 38.669983 C 5.3399659,37.200012 6.5299679,36 7.9999999,36 H 13.339966 C 14.809998,36 16,37.200012 16,38.669983 Z"
     id="path175"
     style="fill:#ffffff" /><path
     d="m 16,52 v 5.330017 C 16,58.799988 14.809998,60 13.339966,60 H 7.9999999 c -1.470032,0 -2.660034,-1.200012 -2.660034,-2.669983 V 52 c 0,-1.469971 1.190002,-2.669983 2.660034,-2.669983 H 13.339966 C 14.809998,49.330017 16,50.530029 16,52 Z"
     id="path177"
     style="fill:#ffffff" /><path
     d="m 16,65.330017 v 5.339966 c 0,1.470032 -1.190002,2.659973 -2.660034,2.659973 H 7.9999999 c -1.470032,0 -2.660034,-1.189941 -2.660034,-2.659973 v -5.339966 c 0,-1.470032 1.190002,-2.660034 2.660034,-2.660034 H 13.339966 C 14.809998,62.669983 16,63.859985 16,65.330017 Z"
     id="path179"
     style="fill:#ffffff" /><path
     d="m 26.670048,25.334744 h -5.333245 c -1.470642,0 -2.666622,1.19598 -2.666622,2.666622 v 2.666622 c 0,1.470642 1.19598,2.666622 2.666622,2.666622 h 5.333245 c 1.470646,0 2.666622,-1.19598 2.666622,-2.666622 v -2.666622 c 0,-1.470642 -1.195976,-2.666622 -2.666622,-2.666622 z m -5.333245,5.333244 v -2.666622 h 5.333245 l 0.0027,2.666622 z"
     id="path181"
     style="fill:#ffffff" /><path
     d="M 29.339966,38.669983 V 44 c 0,1.469971 -1.200012,2.669983 -2.669983,2.669983 h -5.330017 c -1.469971,0 -2.669983,-1.200012 -2.669983,-2.669983 V 38.669983 C 18.669983,37.200012 19.869995,36 21.339966,36 h 5.330017 c 1.469971,0 2.669983,1.200012 2.669983,2.669983 z"
     id="path183"
     style="fill:#ffffff" /><path
     d="m 29.339966,52 v 5.330017 C 29.339966,58.799988 28.139954,60 26.669983,60 h -5.330017 c -1.469971,0 -2.669983,-1.200012 -2.669983,-2.669983 V 52 c 0,-1.469971 1.200012,-2.669983 2.669983,-2.669983 h 5.330017 c 1.469971,0 2.669983,1.200012 2.669983,2.669983 z"
     id="path185"
     style="fill:#ffffff" /><path
     d="m 29.339966,65.330017 v 5.339966 c 0,1.470032 -1.200012,2.659973 -2.669983,2.659973 h -5.330017 c -1.469971,0 -2.669983,-1.189941 -2.669983,-2.659973 v -5.339966 c 0,-1.470032 1.200012,-2.660034 2.669983,-2.660034 h 5.330017 c 1.469971,0 2.669983,1.190002 2.669983,2.660034 z"
     id="path187"
     style="fill:#ffffff" /><path
     d="m 40.003162,25.334744 h -5.333244 c -1.470646,0 -2.666622,1.19598 -2.666622,2.666622 v 2.666622 c 0,1.470642 1.195976,2.666622 2.666622,2.666622 h 5.333244 c 1.470643,0 2.666623,-1.19598 2.666623,-2.666622 v -2.666622 c 0,-1.470642 -1.19598,-2.666622 -2.666623,-2.666622 z m -5.333244,5.333244 v -2.666622 h 5.333244 l 0.0027,2.666622 z"
     id="path189"
     style="fill:#ffffff" /><path
     d="M 42.669983,38.669983 V 44 c 0,1.469971 -1.200012,2.669983 -2.669983,2.669983 H 34.669983 C 33.200012,46.669983 32,45.469971 32,44 V 38.669983 C 32,37.200012 33.200012,36 34.669983,36 H 40 c 1.469971,0 2.669983,1.200012 2.669983,2.669983 z"
     id="path191"
     style="fill:#ffffff" /><path
     d="m 42.669983,52 v 5.330017 C 42.669983,58.799988 41.469971,60 40,60 H 34.669983 C 33.200012,60 32,58.799988 32,57.330017 V 52 c 0,-1.469971 1.200012,-2.669983 2.669983,-2.669983 H 40 c 1.469971,0 2.669983,1.200012 2.669983,2.669983 z"
     id="path193"
     style="fill:#ffffff" /><path
     d="m 42.669983,65.330017 v 5.339966 c 0,1.470032 -1.200012,2.659973 -2.669983,2.659973 H 34.669983 C 33.200012,73.329956 32,72.140015 32,70.669983 v -5.339966 c 0,-1.470032 1.200012,-2.660034 2.669983,-2.660034 H 40 c 1.469971,0 2.669983,1.190002 2.669983,2.660034 z"
     id="path195"
     style="fill:#ffffff" /><path
     d="m 53.336273,25.334744 h -5.333244 c -1.470646,0 -2.666622,1.19598 -2.666622,2.666622 v 2.666622 c 0,1.470642 1.195976,2.666622 2.666622,2.666622 h 5.333244 c 1.470642,0 2.666619,-1.19598 2.666619,-2.666622 v -2.666622 c 0,-1.470642 -1.195977,-2.666622 -2.666619,-2.666622 z m -5.333244,5.333244 v -2.666622 h 5.333244 l 0.0027,2.666622 z"
     id="path197"
     style="fill:#ffffff" /><path
     d="M 56,38.669983 V 44 c 0,1.469971 -1.190002,2.669983 -2.660034,2.669983 H 48 c -1.470032,0 -2.660034,-1.200012 -2.660034,-2.669983 V 38.669983 C 45.339966,37.200012 46.529968,36 48,36 h 5.339966 C 54.809998,36 56,37.200012 56,38.669983 Z"
     id="path199"
     style="fill:#ffffff" /><path
     d="m 56,52 v 18.669983 c 0,1.470032 -1.190002,2.659973 -2.660034,2.659973 H 48 c -1.470032,0 -2.660034,-1.189941 -2.660034,-2.659973 V 52 c 0,-1.469971 1.190002,-2.669983 2.660034,-2.669983 h 5.339966 C 54.809998,49.330017 56,50.530029 56,52 Z"
     id="path201"
     style="fill:#ffffff" /></svg>
