<?xml version="1.0" encoding="UTF-8" standalone="no"?>
<svg
   viewBox="0 0 22.025002 22.025175"
   x="0px"
   y="0px"
   version="1.1"
   id="svg2"
   sodipodi:docname="calendar.svg"
   width="22.025002"
   height="22.025175"
   inkscape:version="1.3.2 (091e20e, 2023-11-25)"
   xmlns:inkscape="http://www.inkscape.org/namespaces/inkscape"
   xmlns:sodipodi="http://sodipodi.sourceforge.net/DTD/sodipodi-0.dtd"
   xmlns="http://www.w3.org/2000/svg"
   xmlns:svg="http://www.w3.org/2000/svg">
  <defs
     id="defs2" />
  <sodipodi:namedview
     id="namedview2"
     pagecolor="#ffffff"
     bordercolor="#000000"
     borderopacity="0.25"
     inkscape:showpageshadow="2"
     inkscape:pageopacity="0.0"
     inkscape:pagecheckerboard="0"
     inkscape:deskcolor="#d1d1d1"
     inkscape:zoom="10.495818"
     inkscape:cx="9.2417757"
     inkscape:cy="17.768981"
     inkscape:window-width="1440"
     inkscape:window-height="900"
     inkscape:window-x="0"
     inkscape:window-y="0"
     inkscape:window-maximized="0"
     inkscape:current-layer="svg2" />
  <ellipse
     style="fill:#eff1f3;fill-opacity:1;stroke:#eff1f3;stroke-width:5.64295;stroke-opacity:1"
     id="path2"
     cx="11.012501"
     cy="11.012588"
     rx="8.1910257"
     ry="8.1911125" />
  <path
     d="M 17.189153,16.921702 H 4.9726221 A 0.83732204,0.729004 0 0 1 4.1363127,16.19358 V 6.2612161 A 0.83732204,0.729004 0 0 1 4.9726221,5.533123 H 6.6367274 V 5.1813101 a 1.0685284,0.93030103 0 0 1 1.09087,-0.9417366 1.0669974,0.92896798 0 0 1 1.0906459,0.9363664 V 5.533123 H 10.079925 V 5.1813101 a 1.0908259,0.949714 0 0 1 2.181506,-0.00532 v 0.3571662 h 1.261681 V 5.1813101 a 1.0908259,0.949714 0 0 1 2.181516,-0.00541 v 0.3571831 h 1.484559 a 0.83732204,0.729004 0 0 1 0.836275,0.7281321 v 9.9323637 a 0.83732204,0.729004 0 0 1 -0.836309,0.728123 z M 4.9726221,5.9549619 A 0.35217566,0.30661735 0 0 0 4.6208285,6.2612161 V 16.19358 a 0.35217566,0.30661735 0 0 0 0.3517983,0.306284 H 17.189153 A 0.35217566,0.30661735 0 0 0 17.54095,16.19358 V 6.2612161 A 0.35217566,0.30661735 0 0 0 17.189153,5.9549326 h -3.181529 v 0.949979 a 0.2422585,0.21091935 0 0 1 -0.484517,0 V 5.9549619 h -2.958675 v 0.9499798 a 0.24225865,0.21091948 0 0 1 -0.484517,0 V 5.9549619 H 7.1212441 v 0.9499798 a 0.24225836,0.21091923 0 0 1 -0.4845167,0 V 5.9549619 Z M 14.007624,5.533123 h 1.212488 V 5.1813101 a 0.60627549,0.52784621 0 0 0 -1.212474,0.00532 z m -3.443192,0 h 1.212473 V 5.1813101 a 0.60627549,0.52784621 0 0 0 -1.212473,0.00532 z m -3.4431879,0 H 8.3337173 V 5.1813101 A 0.58138104,0.50617216 0 0 0 7.7273594,4.6614115 0.58274737,0.50736175 0 0 0 7.1212293,5.186651 Z m 9.3934179,10.28416 H 5.647112 A 0.24211774,0.2107968 0 0 1 5.4048541,15.606364 V 8.5098629 A 0.24211774,0.2107968 0 0 1 5.647112,8.2989443 h 10.86755 a 0.24211774,0.2107968 0 0 1 0.242259,0.2109186 v 7.0964801 a 0.24211774,0.2107968 0 0 1 -0.242259,0.210919 z m -2.47463,-0.421838 h 2.232372 v -1.943608 h -2.232372 z m -2.716887,0 h 2.232372 v -1.943608 h -2.232372 z m -2.7168869,0 H 10.838628 V 13.451837 H 8.6062581 Z m -2.7168872,0 H 8.1217414 V 13.451837 H 5.8893709 Z m 8.1506611,-2.365424 h 2.232372 v -1.943608 h -2.232372 z m -2.716887,0 h 2.232372 v -1.943608 h -2.232372 z m -2.7168869,0 H 10.838628 V 11.086413 H 8.6062581 Z m -2.7168872,0 H 8.1217414 V 11.086413 H 5.8893709 Z m 8.1506611,-2.365446 h 2.232372 V 8.7207823 h -2.232372 z m -2.716887,0 h 2.232372 V 8.7207823 h -2.232372 z m -2.7168869,0 H 10.838628 V 8.7207823 H 8.6062581 Z m -2.7168872,0 H 8.1217414 V 8.7207823 H 5.8893709 Z"
     id="path1"
     style="stroke-width:0.452093" />
</svg>
