<?xml version="1.0" encoding="UTF-8" standalone="no"?>
<svg
   version="1.1"
   x="0px"
   y="0px"
   viewBox="7.5 7.5 38.411819 38.309834"
   enable-background="new 7.5 7.5 50 50"
   xml:space="preserve"
   id="svg5714"
   sodipodi:docname="euro-icon.svg"
   inkscape:version="1.2.2 (b0a84865, 2022-12-01)"
   width="38.411819"
   height="38.309834"
   xmlns:inkscape="http://www.inkscape.org/namespaces/inkscape"
   xmlns:sodipodi="http://sodipodi.sourceforge.net/DTD/sodipodi-0.dtd"
   xmlns="http://www.w3.org/2000/svg"
   xmlns:svg="http://www.w3.org/2000/svg"><defs
     id="defs5718" /><sodipodi:namedview
     id="namedview5716"
     pagecolor="#ffffff"
     bordercolor="#000000"
     borderopacity="0.25"
     inkscape:showpageshadow="2"
     inkscape:pageopacity="0.0"
     inkscape:pagecheckerboard="0"
     inkscape:deskcolor="#d1d1d1"
     showgrid="false"
     inkscape:zoom="12.079057"
     inkscape:cx="25.457285"
     inkscape:cy="12.252612"
     inkscape:window-width="1440"
     inkscape:window-height="900"
     inkscape:window-x="0"
     inkscape:window-y="0"
     inkscape:window-maximized="0"
     inkscape:current-layer="svg5714" /><path
     style="fill:#eff1f4;fill-opacity:1;stroke:#eff1f4;stroke-width:1.06318;stroke-opacity:1"
     id="path7674"
     sodipodi:type="arc"
     sodipodi:cx="26.705908"
     sodipodi:cy="26.654915"
     sodipodi:rx="18.674297"
     sodipodi:ry="18.623308"
     sodipodi:start="4.7250669"
     sodipodi:end="4.7219051"
     sodipodi:arc-type="arc"
     d="M 26.942653,8.0331033 A 18.674297,18.623308 0 0 1 45.378886,26.876294 18.674297,18.623308 0 0 1 26.498683,45.277076 18.674297,18.623308 0 0 1 8.0326023,26.462976 18.674297,18.623308 0 0 1 26.883612,8.0324499"
     sodipodi:open="true" /><path
     d="m 32.506747,33.75784 c -0.08,-0.09 -0.173,-0.136 -0.275,-0.136 -0.093,0 -0.195,0.056 -0.315,0.172 -0.111,0.105 -0.247,0.239 -0.409,0.402 -0.167,0.165 -0.361,0.342 -0.577,0.524 -0.223,0.187 -0.492,0.361 -0.801,0.52 -0.309,0.159 -0.675,0.293 -1.088,0.397 -0.411,0.104 -0.893,0.157 -1.429,0.157 -0.78,0 -1.505,-0.141 -2.154,-0.418 -0.648,-0.276 -1.225,-0.692 -1.713,-1.237 -0.49,-0.546 -0.896,-1.236 -1.208,-2.052 -0.308,-0.802 -0.522,-1.744 -0.637,-2.803 h 6.276 c 0.146,0 0.263,-0.042 0.346,-0.126 0.084,-0.084 0.126,-0.186 0.126,-0.305 v -0.394 c 0,-0.028 -0.022,-0.05 -0.05,-0.05 h -6.771 c -0.007,-0.159 -0.013,-0.316 -0.017,-0.471 -0.005,-0.172 -0.007,-0.348 -0.007,-0.533 0,-0.423 0.012,-0.835 0.036,-1.227 h 7.55 c 0.153,0 0.271,-0.043 0.346,-0.128 0.075,-0.084 0.112,-0.181 0.112,-0.29 v -0.395 c 0,-0.028 -0.022,-0.05 -0.05,-0.05 h -7.869 c 0.132,-1.006 0.358,-1.904 0.674,-2.669 0.32,-0.779 0.733,-1.443 1.228,-1.973 0.495,-0.529 1.072,-0.935 1.714,-1.206 0.644,-0.272 1.366,-0.411 2.146,-0.411 0.504,0 0.954,0.046 1.338,0.137 0.385,0.091 0.729,0.203 1.024,0.333 0.293,0.129 0.549,0.275 0.76,0.436 0.225,0.169 0.402,0.313 0.544,0.438 0.148,0.131 0.271,0.243 0.367,0.334 0.105,0.101 0.201,0.152 0.285,0.152 0.082,0 0.147,-0.019 0.195,-0.057 0.047,-0.037 0.09,-0.076 0.132,-0.118 l 0.395,-0.461 c 0.016,-0.019 0.016,-0.046 0,-0.065 -0.326,-0.378 -0.671,-0.715 -1.026,-1 -0.357,-0.287 -0.746,-0.531 -1.154,-0.724 -0.41,-0.193 -0.859,-0.343 -1.335,-0.444 -0.476,-0.101 -1.002,-0.152 -1.563,-0.152 -0.968,0 -1.867,0.174 -2.672,0.518 -0.805,0.342 -1.522,0.842 -2.13,1.486 -0.606,0.641 -1.114,1.434 -1.511,2.358 -0.39,0.91 -0.659,1.95 -0.801,3.09 h -2.115 c -0.028,0 -0.05,0.022 -0.05,0.05 v 0.764 c 0,0.028 0.022,0.05 0.05,0.05 h 2.027 c -0.024,0.399 -0.036,0.811 -0.036,1.227 0,0.186 0.002,0.363 0.006,0.535 0.004,0.154 0.01,0.311 0.018,0.469 h -2.015 c -0.028,0 -0.05,0.021 -0.05,0.05 v 0.776 c 0,0.027 0.022,0.05 0.05,0.05 h 2.088 c 0.125,1.203 0.372,2.289 0.735,3.227 0.369,0.954 0.857,1.772 1.451,2.432 0.595,0.661 1.308,1.17 2.117,1.513 0.809,0.344 1.724,0.518 2.718,0.518 0.625,0 1.21,-0.064 1.736,-0.191 0.525,-0.127 1.019,-0.31 1.467,-0.545 0.445,-0.233 0.858,-0.52 1.227,-0.85 0.367,-0.327 0.715,-0.699 1.033,-1.104 0.017,-0.021 0.014,-0.05 -0.005,-0.067 z"
     id="path5708" /></svg>
