<?xml version="1.0" encoding="UTF-8" standalone="no"?>
<svg
   version="1.1"
   viewBox="-5 -10 80.004265 67.343803"
   id="svg2"
   sodipodi:docname="filtre-icon.svg"
   inkscape:version="1.3.2 (091e20e, 2023-11-25)"
   width="80.004265"
   height="67.343803"
   xmlns:inkscape="http://www.inkscape.org/namespaces/inkscape"
   xmlns:sodipodi="http://sodipodi.sourceforge.net/DTD/sodipodi-0.dtd"
   xmlns="http://www.w3.org/2000/svg"
   xmlns:svg="http://www.w3.org/2000/svg">
  <defs
     id="defs2" />
  <sodipodi:namedview
     id="namedview2"
     pagecolor="#ffffff"
     bordercolor="#000000"
     borderopacity="0.25"
     inkscape:showpageshadow="2"
     inkscape:pageopacity="0.0"
     inkscape:pagecheckerboard="0"
     inkscape:deskcolor="#d1d1d1"
     inkscape:zoom="1.7481481"
     inkscape:cx="40.042373"
     inkscape:cy="41.186441"
     inkscape:window-width="1440"
     inkscape:window-height="449"
     inkscape:window-x="0"
     inkscape:window-y="25"
     inkscape:window-maximized="0"
     inkscape:current-layer="svg2" />
  <path
     d="m 74.918525,-9.546874 c -0.12891,-0.28125 -0.41016,-0.44922 -0.71094,-0.44922 l -78.4220001,-0.0039 c -0.30859,0 -0.57812,0.17188 -0.71094,0.44922 -0.12891,0.26953 -0.089844,0.60156 0.10938,0.82812 l 31.1910001,37.43 v 21.988 c 0,0.32812 0.19922,0.62109 0.51172,0.73828 l 15.68,5.8594 c 0.08984,0.03906 0.17969,0.05078 0.28125,0.05078 0.14844,0 0.30859,-0.03906 0.44141,-0.14062 0.21875,-0.14062 0.33984,-0.37891 0.33984,-0.64062 v -27.859 l 31.191,-37.43 c 0.19922,-0.23047 0.23828,-0.55859 0.10938,-0.82812 z"
     id="path1"
     style="fill:#143b86;fill-opacity:1" />
</svg>
