<?xml version="1.0" encoding="UTF-8" standalone="no"?>
<svg
   version="1.1"
   viewBox="-5 -10 95.004295 77.628601"
   id="svg2"
   sodipodi:docname="filtre-icon-selected.svg"
   width="95.004295"
   height="77.628601"
   inkscape:version="1.3.2 (091e20e, 2023-11-25)"
   xmlns:inkscape="http://www.inkscape.org/namespaces/inkscape"
   xmlns:sodipodi="http://sodipodi.sourceforge.net/DTD/sodipodi-0.dtd"
   xmlns="http://www.w3.org/2000/svg"
   xmlns:svg="http://www.w3.org/2000/svg">
  <defs
     id="defs2" />
  <sodipodi:namedview
     id="namedview2"
     pagecolor="#ffffff"
     bordercolor="#000000"
     borderopacity="0.25"
     inkscape:showpageshadow="2"
     inkscape:pageopacity="0.0"
     inkscape:pagecheckerboard="0"
     inkscape:deskcolor="#d1d1d1"
     inkscape:zoom="1.7481481"
     inkscape:cx="47.478815"
     inkscape:cy="46.334747"
     inkscape:window-width="1440"
     inkscape:window-height="449"
     inkscape:window-x="0"
     inkscape:window-y="25"
     inkscape:window-maximized="0"
     inkscape:current-layer="svg2" />
  <path
     d="m -2.499701,3.8672 c -1.3789,0 -2.5,-1.1211 -2.5,-2.5 0,-1.3789 1.1211,-2.5 2.5,-2.5 h 11.176 v -1.3789 c 0,-2.0586 0.84375,-3.9336 2.1992,-5.2891 1.3555,-1.3555 3.2305,-2.1992 5.2891,-2.1992 h 7.7617 c 2.0586,0 3.9336,0.84375 5.2891,2.1992 1.3555,1.3555 2.1992,3.2305 2.1992,5.2891 v 1.3789 h 56.086 c 1.3789,0 2.5,1.1211 2.5,2.5 0,1.3789 -1.1211,2.5 -2.5,2.5 h -56.086 v 1.3789 c 0,2.0469 -0.84375,3.9219 -2.1992,5.2812 l -0.0078,0.0078 c -1.3633,1.3594 -3.2344,2.1992 -5.2812,2.1992 h -7.7617 c -2.0586,0 -3.9336,-0.84375 -5.2891,-2.1992 -1.3555,-1.35545 -2.1992,-3.2305 -2.1992,-5.2891 V 3.8671 Z m 41.121,41.027 h 7.7617 c 2.0586,0 3.9336,0.84375 5.2891,2.1992 1.3555,1.3555 2.1992,3.2305 2.1992,5.2891 v 1.3789 h 33.633 c 1.3789,0 2.5,1.1211 2.5,2.5 0,1.3789 -1.1211,2.5 -2.5,2.5 h -33.633 v 1.3789 c 0,2.0586 -0.84375,3.9336 -2.1992,5.2891 -1.35545,1.3555 -3.2305,2.1992 -5.2891,2.1992 h -7.7617 c -2.0586,0 -3.9336,-0.84375 -5.2891,-2.1992 -1.3555,-1.35545 -2.1992,-3.2305 -2.1992,-5.2891 v -1.3789 h -33.629 c -1.3789,0 -2.5,-1.1211 -2.5,-2.5 0,-1.3789 1.1211,-2.5 2.5,-2.5 h 33.629 v -1.3789 c 0,-2.0469 0.84375,-3.9219 2.1992,-5.2812 l 0.0078,-0.0078 c 1.3633,-1.3594 3.2344,-2.1992 5.2812,-2.1992 z m 7.7617,5 h -7.7617 c -0.6875,0 -1.3086,0.27734 -1.7539,0.72266 l -0.0078,0.0078 c -0.44531,0.44531 -0.72266,1.0664 -0.72266,1.7539 v 7.7578 c 0,0.67969 0.28125,1.3047 0.73047,1.7539 0.44922,0.44922 1.0742,0.73047 1.7539,0.73047 h 7.7617 c 0.67969,0 1.3047,-0.28125 1.7539,-0.73047 0.4492,-0.44922 0.73047,-1.0742 0.73047,-1.7539 v -7.7578 c 0,-0.67969 -0.28125,-1.3047 -0.73047,-1.7539 -0.45312,-0.45312 -1.0742,-0.73047 -1.7539,-0.73047 z m 22.457,-27.449 h -7.7617 c -0.67969,0 -1.3047,0.28125 -1.7539,0.73047 -0.4492,0.44922 -0.73047,1.0742 -0.73047,1.7539 v 7.7578 c 0,0.67969 0.28125,1.3047 0.73047,1.7539 0.45312,0.45312 1.0742,0.73047 1.7539,0.73047 h 7.7617 c 0.6875,0 1.3086,-0.27734 1.7539,-0.72266 l 0.0078,-0.0078 c 0.44531,-0.44531 0.72266,-1.0664 0.72266,-1.7539 v -7.7578 c 0,-0.6875 -0.27734,-1.3086 -0.72266,-1.7539 l -0.0078,-0.0078 c -0.44531,-0.44531 -1.0664,-0.72266 -1.7539,-0.72266 z m -7.7617,-5 h 7.7617 c 2.0469,0 3.9141,0.83984 5.2734,2.1953 l 0.0078,0.0078 c 1.3633,1.3633 2.2031,3.2344 2.2031,5.2852 v 1.3789 h 11.176 c 1.3789,0 2.5,1.1211 2.5,2.5 0,1.3789 -1.1211,2.5 -2.5,2.5 h -11.176 v 1.3789 c 0,2.0469 -0.83984,3.9141 -2.1953,5.2734 l -0.0078,0.0078 c -1.3633,1.3633 -3.2344,2.2031 -5.2852,2.2031 h -7.7617 c -2.0586,0 -3.9336,-0.84375 -5.2891,-2.1992 -1.3555,-1.3555 -2.1992,-3.2305 -2.1992,-5.2891 v -1.3789 h -56.086 c -1.3789,0 -2.5,-1.1211 -2.5,-2.5 0,-1.3789 1.1211,-2.5 2.5,-2.5 h 56.086 v -1.3789 c 0,-2.0586 0.84375,-3.9336 2.1992,-5.2891 1.3555,-1.3555 3.2305,-2.1992 5.2891,-2.1992 z m -37.152,-22.445 h -7.7617 c -0.67969,0 -1.3047,0.28125 -1.7539,0.73047 -0.44922,0.44922 -0.73047,1.0742 -0.73047,1.7539 v 7.7578 c 0,0.67969 0.28125,1.3047 0.73047,1.7539 0.45312,0.45312 1.0742,0.73047 1.7539,0.73047 h 7.7617 c 0.6875,0 1.3125,-0.27734 1.7539,-0.72266 l 0.0078,-0.0078 c 0.44531,-0.44531 0.72266,-1.0664 0.72266,-1.7539 v -7.7578 c 0,-0.67969 -0.28125,-1.3047 -0.73047,-1.7539 -0.44922,-0.44922 -1.0742,-0.73047 -1.7539,-0.73047 z"
     id="path1"
     style="fill:#143b86;fill-opacity:1" />
</svg>
