<?xml version="1.0" encoding="UTF-8" standalone="no"?>
<svg
   version="1.1"
   x="0px"
   y="0px"
   viewBox="0 0 128.00008 128.00006"
   xml:space="preserve"
   id="svg32"
   sodipodi:docname="gest-icon.svg"
   width="128.00008"
   height="128.00006"
   inkscape:version="1.2.2 (b0a84865, 2022-12-01)"
   xmlns:inkscape="http://www.inkscape.org/namespaces/inkscape"
   xmlns:sodipodi="http://sodipodi.sourceforge.net/DTD/sodipodi-0.dtd"
   xmlns="http://www.w3.org/2000/svg"
   xmlns:svg="http://www.w3.org/2000/svg"><defs
     id="defs36" /><sodipodi:namedview
     id="namedview34"
     pagecolor="#ffffff"
     bordercolor="#000000"
     borderopacity="0.25"
     inkscape:showpageshadow="2"
     inkscape:pageopacity="0.0"
     inkscape:pagecheckerboard="0"
     inkscape:deskcolor="#d1d1d1"
     showgrid="false"
     inkscape:zoom="1.475"
     inkscape:cx="47.118644"
     inkscape:cy="80"
     inkscape:window-width="1440"
     inkscape:window-height="456"
     inkscape:window-x="0"
     inkscape:window-y="25"
     inkscape:window-maximized="0"
     inkscape:current-layer="svg32" /><path
     d="M 66.831973,2.8350242 126.26266,67.677759 c 0.19731,0.214905 0.4668,0.324303 0.73731,0.324303 0.24119,0 0.48339,-0.087 0.67579,-0.262695 0.4072,-0.373101 0.43459,-1.005402 0.0615,-1.412606 L 107.20697,43.926863 c 0.0244,-0.086 0.0537,-0.170498 0.0537,-0.264198 V 19.361863 c 0,-0.552198 -0.4472,-1 -1,-1 H 96.131772 c -0.552704,0 -1,0.447802 -1,1 v 11.3897 L 68.267565,1.4409842 c -0.0244,-0.02686 -0.0508,-0.05225 -0.0781,-0.07617 -2.022493,-1.77246496 -5.627493,-2.20019906 -8.780802,1.05957 L 0.26806452,65.963466 c -0.3765,0.404297 -0.3535,1.037101 0.0507,1.412598 0.4034,0.375503 1.03669998,0.354003 1.41309998,-0.0508 L 60.859362,3.8008443 C 63.081973,1.5039741 65.451159,1.6597342 66.831973,2.8350242 Z M 97.131762,32.880466 V 20.361863 h 8.128898 v 21.440901 l -8.137687,-8.878399 c 9.99e-4,-0.0156 0.0088,-0.0283 0.0088,-0.0439 z"
     id="path2" /><path
     d="m 60.999972,43.002963 h -4 c -0.552208,0 -1,0.4478 -1,1 0,0.5523 0.447792,1 1,1 h 4 c 0.552193,0 1,-0.4477 1,-1 0,-0.5522 -0.447807,-1 -1,-1 z"
     id="path4" /><path
     d="m 70.999972,43.002963 h -4 c -0.552712,0 -1,0.4478 -1,1 0,0.5523 0.447288,1 1,1 h 4 c 0.552689,0 1,-0.4477 1,-1 0,-0.5522 -0.447311,-1 -1,-1 z"
     id="path6" /><path
     d="m 60.999972,49.002963 h -4 c -0.552208,0 -1,0.4478 -1,1 0,0.5523 0.447792,1 1,1 h 4 c 0.552193,0 1,-0.4477 1,-1 0,-0.5522 -0.447807,-1 -1,-1 z"
     id="path8" /><path
     d="m 70.999972,49.002963 h -4 c -0.552712,0 -1,0.4478 -1,1 0,0.5523 0.447288,1 1,1 h 4 c 0.552689,0 1,-0.4477 1,-1 0,-0.5522 -0.447311,-1 -1,-1 z"
     id="path10" /><path
     d="m 30.023364,105.92436 v 11.4351 c 0,0.5522 0.447799,1 1,1 0.552299,0 1,-0.4478 1,-1 v -11.4351 c 0,-0.5522 -0.447701,-1 -1,-1 -0.552201,0 -1,0.4478 -1,1 z"
     id="path12" /><circle
     cx="31.023363"
     cy="102.00056"
     r="1"
     id="circle14" /><path
     d="m 48.999972,96.743266 v 18.653294 c 0,0.5522 0.447792,1 1,1 0.552193,0 1,-0.4478 1,-1 V 96.743266 c 0,-2.614303 1.800293,-4.741699 4.013691,-4.741699 h 8.725601 c 0.471096,-0.687004 0.966801,-1.354004 1.487301,-2 H 55.013663 c -3.315899,0 -6.013691,3.024399 -6.013691,6.741699 z"
     id="path16" /><path
     d="M 115.99997,83.744662 V 67.501567 c 0,-1.747604 -0.97171,-4.090404 -2.19241,-5.312004 l -0.2197,-0.233399 c 0.20411,0.988701 0.3096,2.010701 0.3613,3.046303 h -0.19919 c 0.0996,0.657295 0.166,1.323799 0.19919,2 h 0.008 c 0.0244,0.173394 0.043,0.342797 0.043,0.4991 v 14.972099 c 0.68359,0.399895 1.35059,0.823296 2,1.270996 z"
     id="path18" /><path
     d="m 57.999972,126.00006 h -7 v -5.7319 c 0,-0.5523 -0.447807,-1 -1,-1 -0.552208,0 -1,0.4477 -1,1 v 5.7319 H 18.464764 c -2.461901,0 -4.464792,-1.9775 -4.464792,-4.4082 V 67.501567 c 0,-0.157303 0.01269,-0.324699 0.03559,-0.4991 h 60.0152 c 0.03321,-0.676201 0.0996,-1.342705 0.199211,-2 H 14.640565 c 0.269099,-0.590301 0.597199,-1.131801 0.946799,-1.504802 L 60.679663,15.368764 c 0.804199,-0.8604 1.88131,-1.3448 3.034199,-1.3643 1.147904,-0.023 2.248001,0.4292 3.060501,1.2422 l 29.1045,30.851499 c 1.142601,0.107002 2.251,0.325203 3.331108,0.617203 L 68.208972,13.853564 c -1.219712,-1.2207 -2.814507,-1.8725 -4.528809,-1.8481 -1.699699,0.0283 -3.284191,0.7383 -4.460999,1.997 l -45.0918,48.128002 c -1.1928,1.273399 -2.127392,3.6333 -2.127392,5.371101 v 54.090293 c 0,3.5337 2.899892,6.4082 6.464792,6.4082 H 58.18356 c -0.111296,-0.3145 -0.183588,-0.6475 -0.183588,-1 z"
     id="path20" /><path
     d="m 59.999972,110.77206 v 16.228 c 0,0.5522 0.447792,1 1,1 0.552193,0 1,-0.4478 1,-1 v -16.228 c 0,-13.602593 8.932594,-24.7193 21.348587,-27.872597 -0.723587,-0.457497 -1.426697,-0.944801 -2.084,-1.489197 -12.455993,3.883301 -21.264587,15.3964 -21.264587,29.361794 z"
     id="path22" /><path
     d="m 127.98726,110.77206 c 0,-13.959999 -8.8047,-25.469796 -21.2568,-29.356995 -0.6582,0.543999 -1.3614,1.0308 -2.085,1.488296 12.4131,3.1577 21.3418,14.2715 21.3418,27.869199 0,0 0.005,10.2353 0.0127,16.229 0.001,0.5517 0.44819,0.9985 1,0.9985 h 0.001 c 0.55269,-5e-4 1.00001,-0.4492 0.999,-1.0015 -0.008,-5.9926 -0.0127,-16.227 -0.0127,-16.2265 z"
     id="path24" /><path
     d="m 97.437464,83.664661 c 8.294896,-1.605996 14.562506,-8.898995 14.562506,-17.661698 0,-9.941398 -8.05961,-18 -17.999998,-18 -9.940407,0 -18,8.058602 -18,18 0,8.434098 5.811493,15.493698 13.642593,17.444901 l -2.573303,23.548796 c -0.301697,1.4067 0.382797,3.0957 1.616203,3.9819 l 4.088898,3.5835 c 0.251999,0.2193 0.7705,0.4448 1.327202,0.4448 0.405197,0 0.829994,-0.1191 1.188408,-0.4477 l 4.085998,-3.5811 c 1.225589,-0.8842 1.883789,-2.6172 1.523389,-4.0049 z M 77.999972,66.002963 c 0,-8.8227 7.177689,-16 16,-16 8.822288,0 15.999998,7.1773 15.999998,16 0,8.8218 -7.17771,15.998604 -15.999998,15.998604 -8.822311,0 -16,-7.176804 -16,-15.998604 z m 20.185494,43.367197 -4.141602,3.6226 c -0.0126,-0.003 -0.0263,-0.007 -0.039,-0.0108 l -4.0401,-3.542 -0.08979,-0.0703 c -0.591812,-0.4092 -0.99411,-1.3515 -0.844711,-1.9765 l 2.580999,-23.568397 c 0.784203,0.1045 1.577202,0.176804 2.38871,0.176804 0.491188,0 0.973587,-0.03471 1.455093,-0.0733 l 3.474594,23.397003 0.02831,0.1289 c 0.17289,0.6025 -0.195312,1.5156 -0.772506,1.916 z"
     id="path26" /></svg>
