<?xml version="1.0" encoding="UTF-8" standalone="no"?>
<svg
   viewBox="0 0 20 20"
   version="1.1"
   x="0px"
   y="0px"
   id="svg4"
   sodipodi:docname="help.svg"
   width="20"
   height="20"
   inkscape:version="1.3 (0e150ed6c4, 2023-07-21)"
   xmlns:inkscape="http://www.inkscape.org/namespaces/inkscape"
   xmlns:sodipodi="http://sodipodi.sourceforge.net/DTD/sodipodi-0.dtd"
   xmlns="http://www.w3.org/2000/svg"
   xmlns:svg="http://www.w3.org/2000/svg">
  <defs
     id="defs4" />
  <sodipodi:namedview
     id="namedview4"
     pagecolor="#ffffff"
     bordercolor="#000000"
     borderopacity="0.25"
     inkscape:showpageshadow="2"
     inkscape:pageopacity="0.0"
     inkscape:pagecheckerboard="0"
     inkscape:deskcolor="#d1d1d1"
     inkscape:zoom="25.9"
     inkscape:cx="10"
     inkscape:cy="12.992278"
     inkscape:window-width="1920"
     inkscape:window-height="991"
     inkscape:window-x="-9"
     inkscape:window-y="-9"
     inkscape:window-maximized="1"
     inkscape:current-layer="g2" />
  <title
     id="title1">Help</title>
  <desc
     id="desc1">Created with Sketch.</desc>
  <g
     stroke="none"
     stroke-width="1"
     fill="none"
     fill-rule="evenodd"
     id="g3"
     transform="translate(-2,-2)">
    <g
       id="g2">
      <rect
         x="0"
         y="0"
         width="24"
         height="24"
         id="rect1" />
      <path
         d="m 12,3 c -4.9710009,0 -9,4.0286611 -9,9 0,4.971001 4.0286611,9 9,9 4.971001,0 9,-4.028661 9,-9 C 21,7.0289991 16.971339,3 12,3 Z M 12,2 C 17.524062,2 22,6.4771525 22,12 22,17.524062 17.522847,22 12,22 6.4759382,22 2,17.522847 2,12 2,6.4759382 6.4771525,2 12,2 Z"
         fill="#000000"
         fill-rule="nonzero"
         id="path1"
         style="fill:#cccccc" />
      <path
         d="m 12.25,14 c 0,0.276142 -0.223858,0.5 -0.5,0.5 -0.276142,0 -0.5,-0.223858 -0.5,-0.5 v -0.378975 c 0,-0.970892 0.438392,-1.470362 1.45776,-2.064152 -0.02894,0.01686 0.31859,-0.183813 0.410984,-0.23896 C 14.106224,10.728526 14.5,10.178734 14.5,8.9781681 c 0,-1.3814599 -0.978368,-2.2857143 -2.75,-2.2857143 -1.644182,0 -2.75,1.2785963 -2.75,2.75 0,0.2761424 -0.2238576,0.5 -0.5,0.5 -0.2761424,0 -0.5,-0.2238576 -0.5,-0.5 0,-1.9940419 1.518673,-3.75 3.75,-3.75 2.307089,0 3.75,1.3336066 3.75,3.2857143 0,1.5991229 -0.6054,2.4443869 -1.868744,3.1984249 -0.09971,0.05951 -0.454966,0.264646 -0.420157,0.244369 C 12.468683,12.853425 12.25,13.102576 12.25,13.621025 Z"
         fill="#000000"
         fill-rule="nonzero"
         id="path2"
         style="fill:#cccccc" />
      <circle
         fill="#000000"
         cx="11.8"
         cy="16.700001"
         r="1"
         id="circle2"
         style="fill:#cccccc" />
    </g>
  </g>
  <text
     x="-2"
     y="37"
     fill="#000000"
     font-size="5px"
     font-weight="bold"
     font-family="'Helvetica Neue', Helvetica, Arial-Unicode, Arial, Sans-serif"
     id="text3">Created by Ruslan Mirsalikhov</text>
  <text
     x="-2"
     y="42"
     fill="#000000"
     font-size="5px"
     font-weight="bold"
     font-family="'Helvetica Neue', Helvetica, Arial-Unicode, Arial, Sans-serif"
     id="text4">from the Noun Project</text>
</svg>
