<?xml version="1.0" encoding="UTF-8" standalone="no"?>
<svg
   version="1.1"
   x="0px"
   y="0px"
   viewBox="0 0 60 50"
   xml:space="preserve"
   id="svg12"
   sodipodi:docname="picture-logo.svg"
   width="60"
   height="50"
   inkscape:version="1.2.2 (b0a84865, 2022-12-01)"
   xmlns:inkscape="http://www.inkscape.org/namespaces/inkscape"
   xmlns:sodipodi="http://sodipodi.sourceforge.net/DTD/sodipodi-0.dtd"
   xmlns="http://www.w3.org/2000/svg"
   xmlns:svg="http://www.w3.org/2000/svg"><defs
     id="defs16" /><sodipodi:namedview
     id="namedview14"
     pagecolor="#ffffff"
     bordercolor="#000000"
     borderopacity="0.25"
     inkscape:showpageshadow="2"
     inkscape:pageopacity="0.0"
     inkscape:pagecheckerboard="0"
     inkscape:deskcolor="#d1d1d1"
     showgrid="false"
     inkscape:zoom="2.95"
     inkscape:cx="29.661017"
     inkscape:cy="32.881356"
     inkscape:window-width="1374"
     inkscape:window-height="456"
     inkscape:window-x="0"
     inkscape:window-y="25"
     inkscape:window-maximized="0"
     inkscape:current-layer="svg12" /><g
     id="g6"
     transform="translate(-2,-7)"
     style="fill:#e9e9e9;fill-opacity:1"><path
       d="m 42.8,13 c -3.9,0 -7,3.1 -7,7 0,3.9 3.1,7 7,7 3.9,0 7,-3.1 7,-7 0,-3.9 -3.1,-7 -7,-7 z m 0,10 c -1.7,0 -3,-1.3 -3,-3 0,-1.7 1.3,-3 3,-3 1.7,0 3,1.3 3,3 0,1.7 -1.3,3 -3,3 z"
       id="path2"
       style="fill:#e9e9e9;fill-opacity:1" /><path
       d="M 57,7 H 7 C 4.2,7 2,9.2 2,12 v 40 c 0,2.8 2.2,5 5,5 h 50 c 2.8,0 5,-2.2 5,-5 V 12 C 62,9.2 59.8,7 57,7 Z M 7,53 C 6.4,53 6,52.6 6,52 V 50.7 L 23.5,32.3 c 0.4,-0.4 1.1,-0.4 1.5,0 L 45,53 Z m 51,-1 c 0,0.6 -0.4,1 -1,1 H 50.6 L 37.1,39 41,35.1 c 0.4,-0.4 1.1,-0.4 1.5,0 L 58,51.4 Z M 58,45.6 45.4,32.2 c -2,-2 -5.2,-2 -7.2,0 l -3.9,3.9 -6.4,-6.7 c -2,-2 -5.2,-2 -7.2,0 L 6,44.9 V 12 c 0,-0.6 0.4,-1 1,-1 h 50 c 0.6,0 1,0.4 1,1 z"
       id="path4"
       style="fill:#e9e9e9;fill-opacity:1" /></g></svg>
