<?xml version="1.0" encoding="UTF-8" standalone="no"?>
<svg
   version="1.1"
   viewBox="-5 -10 88.173912 89.9459"
   id="svg2"
   sodipodi:docname="settings-icon-selected.svg"
   inkscape:version="1.3.2 (091e20e, 2023-11-25, custom)"
   width="88.173912"
   height="89.9459"
   xmlns:inkscape="http://www.inkscape.org/namespaces/inkscape"
   xmlns:sodipodi="http://sodipodi.sourceforge.net/DTD/sodipodi-0.dtd"
   xmlns="http://www.w3.org/2000/svg"
   xmlns:svg="http://www.w3.org/2000/svg">
  <defs
     id="defs2" />
  <sodipodi:namedview
     id="namedview2"
     pagecolor="#ffffff"
     bordercolor="#000000"
     borderopacity="0.25"
     inkscape:showpageshadow="2"
     inkscape:pageopacity="0.0"
     inkscape:pagecheckerboard="0"
     inkscape:deskcolor="#d1d1d1"
     inkscape:zoom="6.0518519"
     inkscape:cx="44.118727"
     inkscape:cy="52.46328"
     inkscape:window-width="1920"
     inkscape:window-height="1094"
     inkscape:window-x="-11"
     inkscape:window-y="-11"
     inkscape:window-maximized="1"
     inkscape:current-layer="svg2" />
  <path
     d="m 30.343145,-9.999807 h 17.48 c 3.0859,0 5.6523,2.4414 5.7852,5.5625 0.44531,10.641 2.918,12.055 12.352,7.125 2.7461,-1.4336 6.1445,-0.44922 7.6914,2.2305 l 8.8633,15.379 c 1.3594,2.7539 0.50391,5.9414 -2.0312,7.5508 -4.5078,2.8633 -6.7617,5.168 -6.7617,7.125 h 0.01172 c 0,1.9648 2.25,4.2656 6.7539,7.125 1.3008,0.82812 2.1641,2.1016 2.5156,3.5117 h 0.0039 c 0.34375,1.3984 0.16406,2.9336 -0.61719,4.2773 l 0.0039,0.0039 -8.7383,15.137 c -1.5469,2.6797 -4.9453,3.6641 -7.6914,2.2305 -9.4375,-4.9297 -11.906,-3.5195 -12.352,7.125 -0.13281,3.1211 -2.6992,5.5625 -5.7852,5.5625 h -17.48 c -3.0859,0 -5.6523,-2.4414 -5.7852,-5.5625 -0.44531,-10.641 -2.918,-12.055 -12.352,-7.125 -2.7461001,1.4336 -6.1445001,0.44922 -7.6914001,-2.2305 l -8.7383,-15.137 c -1.5547,-2.6914 -0.71094,-6.1289 1.9062,-7.793 4.5,-2.8594 6.7539,-5.1602 6.7539,-7.125 h 0.01172 c 0,-1.957 -2.2539,-4.2617 -6.7656,-7.125 -1.3008,-0.82812 -2.1641,-2.1016 -2.5156,-3.5117 h -0.00391 c -0.34375,-1.3984 -0.16406,-2.9258 0.60937,-4.2695 l 8.7383,-15.137 c 1.5547,-2.6914 4.9375,-3.6797 7.6914001,-2.2422 9.4336,4.9297 11.906,3.5156 12.352,-7.125 0.13281,-3.1172 2.6992,-5.5625 5.7852,-5.5625 z m 8.7383,26.445 c -10.234,0 -18.527,8.2969 -18.527,18.527 0,16.453 19.988,24.746 31.633,13.102 11.641,-11.645 3.3477,-31.629 -13.105,-31.629 z m 8.8594,9.668 c -7.875,-7.875 -21.391,-2.2656 -21.391,8.8594 0,11.129 13.516,16.734 21.391,8.8594 4.8945,-4.8906 4.8945,-12.828 0,-17.719 z m -0.30078,-30.113 h -17.113 c -0.68359,14.895 -7.6914,18.922 -20.9260001,12.066 l -8.5547,14.816 c 6.25,4.0039 9.3750001,7.8789 9.3750001,12.09 h 0.01172 c 0,4.207 -3.1289001,8.0781 -9.3828001,12.086 l 8.5547,14.816 c 13.2300001,-6.8516 20.2340001,-2.8242 20.9220001,12.07 h 17.113 c 0.68359,-14.891 7.6914,-18.926 20.922,-12.07 l 8.5547,-14.816 c -6.2578,-4.0078 -9.3867,-7.8789 -9.3867,-12.086 h 0.01172 c 0,-4.2109 3.125,-8.0859 9.3711,-12.086 l -8.5547,-14.812 c -13.23,6.8516 -20.234,2.8203 -20.918,-12.074 z"
     fill-rule="evenodd"
     id="path1"
     style="fill:#aa0000;fill-opacity:1" />
</svg>
