<?xml version="1.0" encoding="UTF-8" standalone="no"?>
<svg
   version="1.1"
   x="0px"
   y="0px"
   viewBox="0 0 82.5 82.400002"
   xml:space="preserve"
   id="svg3"
   sodipodi:docname="settings-icon.svg"
   width="82.5"
   height="82.400002"
   inkscape:version="1.3.2 (091e20e, 2023-11-25, custom)"
   xmlns:inkscape="http://www.inkscape.org/namespaces/inkscape"
   xmlns:sodipodi="http://sodipodi.sourceforge.net/DTD/sodipodi-0.dtd"
   xmlns="http://www.w3.org/2000/svg"
   xmlns:svg="http://www.w3.org/2000/svg"><defs
     id="defs3" /><sodipodi:namedview
     id="namedview3"
     pagecolor="#ffffff"
     bordercolor="#000000"
     borderopacity="0.25"
     inkscape:showpageshadow="2"
     inkscape:pageopacity="0.0"
     inkscape:pagecheckerboard="0"
     inkscape:deskcolor="#d1d1d1"
     inkscape:zoom="6.536"
     inkscape:cx="41.003672"
     inkscape:cy="53.626071"
     inkscape:window-width="1920"
     inkscape:window-height="1094"
     inkscape:window-x="-11"
     inkscape:window-y="-11"
     inkscape:window-maximized="1"
     inkscape:current-layer="svg3" /><g
     id="g2"
     transform="translate(-9,-8.8)"
     style="fill:#d40000"><path
       d="m 13.9,59.9 h 3.2 c 0.7,2.2 1.6,4.4 2.7,6.5 l -2.2,2.2 c -1.9,1.9 -1.9,5 0,6.9 l 7.1,7.1 c 1.9,1.9 5,1.9 6.9,0 l 2.2,-2.2 c 2.1,1.1 4.2,2 6.5,2.7 v 3.2 c 0,2.7 2.2,4.9 4.9,4.9 h 10.1 c 2.7,0 4.9,-2.2 4.9,-4.9 v -3.2 c 2.2,-0.7 4.4,-1.6 6.5,-2.7 l 2.2,2.2 c 1.9,1.9 5,1.9 6.9,0 l 7.1,-7.1 c 0.9,-0.9 1.4,-2.2 1.4,-3.5 0,-1.3 -0.5,-2.5 -1.4,-3.5 l -2.2,-2.2 c 1.1,-2.1 2,-4.2 2.7,-6.5 h 3.2 c 2.7,0 4.9,-2.2 4.9,-4.9 V 45 c 0,-2.7 -2.2,-4.9 -4.9,-4.9 h -3.2 c -0.7,-2.2 -1.6,-4.4 -2.7,-6.5 l 2.2,-2.2 c 1.9,-1.9 1.9,-5 0,-6.9 l -7.1,-7.1 c -1.9,-1.9 -5,-1.9 -6.9,0 l -2.2,2.2 c -2.1,-1.1 -4.2,-2 -6.5,-2.7 V 13.7 C 60.2,11 58,8.8 55.3,8.8 H 45.2 c -2.7,0 -4.9,2.2 -4.9,4.9 v 3.2 c -2.2,0.7 -4.4,1.6 -6.5,2.7 l -2.2,-2.2 c -1.9,-1.9 -5,-1.9 -6.9,0 l -7.1,7.1 c -1.9,1.9 -1.9,5 0,6.9 l 2.2,2.2 c -1.1,2.1 -2,4.2 -2.7,6.5 H 13.9 C 11.2,40.1 9,42.3 9,45 v 10 c 0,2.7 2.2,4.9 4.9,4.9 z M 11,45 c 0,-1.6 1.3,-2.9 2.9,-2.9 h 4.7 l 0.2,-0.7 c 0.7,-2.6 1.7,-5.1 3.1,-7.4 L 22.3,33.3 19,29.9 c -1.1,-1.1 -1.1,-3 0,-4.1 l 7.1,-7.1 c 1.1,-1.1 3,-1.1 4.1,0 l 3.3,3.3 0.7,-0.4 c 2.3,-1.3 4.8,-2.4 7.4,-3.1 l 0.7,-0.2 v -4.7 c 0,-1.6 1.3,-2.9 2.9,-2.9 h 10.1 c 1.6,0 2.9,1.3 2.9,2.9 v 4.7 l 0.7,0.2 c 2.6,0.7 5.1,1.7 7.4,3.1 L 67,22 70.3,18.7 c 1.1,-1.1 3,-1.1 4.1,0 l 7.1,7.1 c 1.1,1.1 1.1,3 0,4.1 l -3.3,3.3 0.4,0.7 c 1.3,2.3 2.4,4.8 3.1,7.4 l 0.2,0.7 h 4.7 c 1.6,0 2.9,1.3 2.9,2.9 V 55 c 0,1.6 -1.3,2.9 -2.9,2.9 h -4.7 l -0.2,0.7 C 81,61.2 80,63.7 78.6,66 l -0.4,0.7 3.3,3.3 c 0.5,0.5 0.9,1.3 0.9,2.1 0,0.8 -0.3,1.5 -0.9,2.1 l -7.1,7.1 c -1.1,1.1 -3,1.1 -4.1,0 L 67,78 66.3,78.4 c -2.3,1.3 -4.8,2.4 -7.4,3.1 l -0.7,0.2 v 4.7 c 0,1.6 -1.3,2.9 -2.9,2.9 H 45.2 c -1.6,0 -2.9,-1.3 -2.9,-2.9 V 81.7 L 41.6,81.5 C 39,80.8 36.5,79.8 34.2,78.4 L 33.5,78 30.2,81.3 c -1.1,1.1 -3,1.1 -4.1,0 L 19,74.2 c -1.1,-1.1 -1.1,-3 0,-4.1 l 3.3,-3.3 -0.4,-0.7 C 20.6,63.8 19.5,61.3 18.8,58.7 L 18.6,58 H 13.9 C 12.3,58 11,56.7 11,55.1 Z"
       id="path1"
       style="fill:#d40000" /><path
       d="m 50.3,68.9 c 10.4,0 18.9,-8.5 18.9,-18.9 0,-10.4 -8.5,-18.9 -18.9,-18.9 -10.4,0 -18.9,8.5 -18.9,18.9 0,10.4 8.5,18.9 18.9,18.9 z m 0,-35.8 c 9.3,0 16.9,7.6 16.9,16.9 0,9.3 -7.6,16.9 -16.9,16.9 C 41,66.9 33.4,59.3 33.4,50 33.4,40.7 41,33.1 50.3,33.1 Z"
       id="path2"
       style="fill:#d40000" /></g></svg>
