<?xml version="1.0" encoding="UTF-8" standalone="no"?>
<svg
   viewBox="0 0 24 28"
   version="1.1"
   xml:space="preserve"
   x="0px"
   y="0px"
   fill-rule="evenodd"
   clip-rule="evenodd"
   stroke-linejoin="round"
   stroke-miterlimit="2"
   id="svg10"
   sodipodi:docname="trash-icon.svg"
   width="24"
   height="28"
   inkscape:version="1.2.2 (b0a84865, 2022-12-01)"
   xmlns:inkscape="http://www.inkscape.org/namespaces/inkscape"
   xmlns:sodipodi="http://sodipodi.sourceforge.net/DTD/sodipodi-0.dtd"
   xmlns="http://www.w3.org/2000/svg"
   xmlns:svg="http://www.w3.org/2000/svg"><defs
     id="defs14" /><sodipodi:namedview
     id="namedview12"
     pagecolor="#ffffff"
     bordercolor="#000000"
     borderopacity="0.25"
     inkscape:showpageshadow="2"
     inkscape:pageopacity="0.0"
     inkscape:pagecheckerboard="0"
     inkscape:deskcolor="#d1d1d1"
     showgrid="false"
     inkscape:zoom="11.058903"
     inkscape:cx="15.146167"
     inkscape:cy="15.824354"
     inkscape:window-width="1440"
     inkscape:window-height="456"
     inkscape:window-x="0"
     inkscape:window-y="25"
     inkscape:window-maximized="0"
     inkscape:current-layer="g4" /><g
     transform="translate(-436,-194)"
     id="g4"
     style="fill:#000000;fill-opacity:1"><path
       d="m 443,198 h -5 c -1.105,0 -2,0.895 -2,2 v 2 c 0,1.105 0.895,2 2,2 v 0 15 c 0,0.796 0.316,1.559 0.879,2.121 0.562,0.563 1.325,0.879 2.121,0.879 3.463,0 10.537,0 14,0 0.796,0 1.559,-0.316 2.121,-0.879 C 457.684,220.559 458,219.796 458,219 v -15 0 c 1.105,0 2,-0.895 2,-2 v -2 c 0,-1.105 -0.895,-2 -2,-2 h -5 v -1 c 0,-1.657 -1.343,-3 -3,-3 h -4 c -1.657,0 -3,1.343 -3,3 z m 13,6 v 15 c 0,0.265 -0.105,0.52 -0.293,0.707 C 455.52,219.895 455.265,220 455,220 h -14 c -0.265,0 -0.52,-0.105 -0.707,-0.293 C 440.105,219.52 440,219.265 440,219 v -15 z m -12,4 v 8 c 0,0.552 0.448,1 1,1 0.552,0 1,-0.448 1,-1 v -8 c 0,-0.552 -0.448,-1 -1,-1 -0.552,0 -1,0.448 -1,1 z m 6,0 v 8 c 0,0.552 0.448,1 1,1 0.552,0 1,-0.448 1,-1 v -8 c 0,-0.552 -0.448,-1 -1,-1 -0.552,0 -1,0.448 -1,1 z m 8,-8 h -20 v 2 h 20 z m -7,-3 v 1 c 0,0 -6,0 -6,0 0,0 0,-1 0,-1 0,-0.552 0.448,-1 1,-1 0,0 4,0 4,0 0.552,0 1,0.448 1,1 z"
       id="path2"
       style="fill:#dc3545;fill-opacity:1" /></g><text
     x="-4"
     y="49"
     fill="#000000"
     font-size="5px"
     font-weight="bold"
     font-family="'Helvetica Neue', Helvetica, Arial-Unicode, Arial, Sans-serif"
     id="text8">from the Noun Project</text></svg>
