<?xml version="1.0" encoding="UTF-8" standalone="no"?>
<svg
   version="1.1"
   x="0px"
   y="0px"
   viewBox="0 0 80.03038 79.979004"
   xml:space="preserve"
   id="svg6608"
   sodipodi:docname="view-more-icon.svg"
   width="80.03038"
   height="79.979004"
   inkscape:version="1.2.2 (b0a84865, 2022-12-01)"
   xmlns:inkscape="http://www.inkscape.org/namespaces/inkscape"
   xmlns:sodipodi="http://sodipodi.sourceforge.net/DTD/sodipodi-0.dtd"
   xmlns="http://www.w3.org/2000/svg"
   xmlns:svg="http://www.w3.org/2000/svg"><defs
     id="defs6612" /><sodipodi:namedview
     id="namedview6610"
     pagecolor="#ffffff"
     bordercolor="#000000"
     borderopacity="0.25"
     inkscape:showpageshadow="2"
     inkscape:pageopacity="0.0"
     inkscape:pagecheckerboard="0"
     inkscape:deskcolor="#d1d1d1"
     showgrid="false"
     inkscape:zoom="1.888"
     inkscape:cx="39.459746"
     inkscape:cy="52.436441"
     inkscape:window-width="1440"
     inkscape:window-height="456"
     inkscape:window-x="0"
     inkscape:window-y="25"
     inkscape:window-maximized="0"
     inkscape:current-layer="svg6608" /><path
     d="m 45.878906,73.253418 h 7.699219 c 0.552734,0 1,-0.447265 1,-1 v -9.300781 c 0,-2.673828 -2.175781,-4.84961 -4.849609,-4.84961 -2.673829,0 -4.84961,2.175782 -4.84961,4.84961 v 9.300781 c 0,0.552734 0.447266,1 1,1 z m 1,-10.300781 c 0,-1.571289 1.27832,-2.84961 2.84961,-2.84961 1.571289,0 2.849609,1.278321 2.849609,2.84961 v 8.300781 h -5.699219 z"
     id="path6592"
     style="fill:#143b86;fill-opacity:1" /><path
     d="m 59.833008,73.253418 h 7.698242 c 0.552734,0 1,-0.447265 1,-1 v -9.300781 c 0,-2.673828 -2.175781,-4.84961 -4.849609,-4.84961 -2.673829,0 -4.848633,2.175782 -4.848633,4.84961 v 9.300781 c 0,0.552734 0.447265,1 1,1 z m 1,-10.300781 c 0,-1.571289 1.27832,-2.84961 2.848633,-2.84961 1.571289,0 2.849609,1.278321 2.849609,2.84961 v 8.300781 h -5.698242 z"
     id="path6594"
     style="fill:#143b86;fill-opacity:1" /><path
     d="m 79.030273,53.20166 c 0.342774,0 0.66211,-0.175781 0.845703,-0.46582 0.182618,-0.290039 0.205079,-0.654297 0.05762,-0.963867 l -8,-16.821289 c -0.166018,-0.348633 -0.51758,-0.570313 -0.903323,-0.570313 H 61.5625 v -5.37793 c 0,-0.552734 -0.447266,-1 -1,-1 h -7.698242 c -0.552735,0 -1,0.447266 -1,1 v 5.37793 H 39.696289 v -5.579102 h 3.37207 c 0.382813,0 0.731446,-0.21875 0.899414,-0.5625 0.166993,-0.34375 0.124024,-0.753906 -0.112304,-1.054687 L 22.821289,0.36181693 c -0.378906,-0.4824224 -1.195312,-0.4824224 -1.574219,0 L 0.21875,27.177246 C 0.082031,27.348145 0,27.564941 0,27.80127 c 0,0.552734 0.447266,1 1,1 H 4.371094 V 77.979004 H 1 c -0.552734,0 -1,0.447266 -1,1 0,0.552734 0.447266,1 1,1 h 78 c 0.552734,0 1,-0.447266 1,-1 0,-0.552734 -0.447266,-1 -1,-1 H 75.688477 V 53.20166 Z M 53.864258,30.002441 H 59.5625 v 10.75586 h -5.698242 z m -2,6.37793 v 5.37793 c 0,0.552734 0.447265,1 1,1 H 60.5625 c 0.552734,0 1,-0.447266 1,-1 v -5.37793 h 8.835937 L 77.447266,51.20166 H 39.696289 V 36.380371 Z M 22.03418,2.5991209 41.013672,26.80127 H 3.054688 Z M 6.371094,28.80127 H 37.696289 V 77.979004 H 28.995117 V 59.754395 c 0,-0.552735 -0.447265,-1 -1,-1 H 16.074219 c -0.552735,0 -1,0.447265 -1,1 V 77.979004 H 6.371094 Z M 26.995117,77.979004 H 17.074219 V 60.754395 h 9.920898 z m 46.69336,0 H 39.696289 V 53.20166 h 33.992188 z"
     id="path6596"
     style="fill:#143b86;fill-opacity:1" /><path
     d="m 22.039062,13.040527 c -3.74707,0 -6.794921,3.047852 -6.794921,6.794922 v 1.838867 c 0,0.552735 0.447265,1 1,1 h 11.589843 c 0.552735,0 1,-0.447265 1,-1 v -1.838867 c 0,-3.74707 -3.047851,-6.794922 -6.794922,-6.794922 z m 4.794922,7.633789 h -9.589843 v -0.838867 c 0,-2.643554 2.151367,-4.794922 4.794921,-4.794922 2.643555,0 4.794922,2.151368 4.794922,4.794922 z"
     id="path6598"
     style="fill:#143b86;fill-opacity:1" /><path
     d="m 24.760742,45.428223 h 7.698242 c 0.552735,0 1,-0.447266 1,-1 v -8.150391 c 0,-0.552734 -0.447265,-1 -1,-1 h -7.698242 c -0.552734,0 -1,0.447266 -1,1 v 8.150391 c 0,0.552734 0.447266,1 1,1 z m 1,-8.150391 h 5.698242 v 6.150391 h -5.698242 z"
     id="path6600"
     style="fill:#143b86;fill-opacity:1" /><path
     d="m 19.317383,45.428223 c 0.552734,0 1,-0.447266 1,-1 v -8.150391 c 0,-0.552734 -0.447266,-1 -1,-1 h -7.698242 c -0.552735,0 -1,0.447266 -1,1 v 8.150391 c 0,0.552734 0.447265,1 1,1 z m -6.698242,-8.150391 h 5.698242 v 6.150391 h -5.698242 z"
     id="path6602"
     style="fill:#143b86;fill-opacity:1" /></svg>
