<?xml version="1.0" encoding="UTF-8" standalone="no"?>
<svg
   version="1.1"
   x="0px"
   y="0px"
   viewBox="0 0 63.9995 63.999748"
   enable-background="new 0 0 100 100"
   xml:space="preserve"
   id="svg2"
   sodipodi:docname="close-icon.svg"
   width="63.9995"
   height="63.999748"
   inkscape:version="1.3.2 (091e20e, 2023-11-25)"
   xmlns:inkscape="http://www.inkscape.org/namespaces/inkscape"
   xmlns:sodipodi="http://sodipodi.sourceforge.net/DTD/sodipodi-0.dtd"
   xmlns="http://www.w3.org/2000/svg"
   xmlns:svg="http://www.w3.org/2000/svg"><defs
     id="defs2" /><sodipodi:namedview
     id="namedview2"
     pagecolor="#ffffff"
     bordercolor="#000000"
     borderopacity="0.25"
     inkscape:showpageshadow="2"
     inkscape:pageopacity="0.0"
     inkscape:pagecheckerboard="0"
     inkscape:deskcolor="#d1d1d1"
     inkscape:zoom="1.888"
     inkscape:cx="31.779661"
     inkscape:cy="44.491525"
     inkscape:window-width="1440"
     inkscape:window-height="449"
     inkscape:window-x="0"
     inkscape:window-y="25"
     inkscape:window-maximized="0"
     inkscape:current-layer="svg2" /><path
     d="m 34.82775,31.99975 28.586,-28.586 c 0.781,-0.781 0.781,-2.047 0,-2.828 -0.78,-0.781 -2.048,-0.781 -2.828,0 l -28.586,28.586 -28.586,-28.586 c -0.78,-0.781 -2.048,-0.781 -2.828,0 -0.781,0.781 -0.781,2.047 0,2.828 l 28.586,28.586 -28.586,28.586 c -0.781,0.781 -0.781,2.047 0,2.828 0.39,0.391 0.902,0.586 1.414,0.586 0.512,0 1.024,-0.195 1.414,-0.586 l 28.586,-28.586 28.586,28.586 c 0.39,0.391 0.902,0.586 1.414,0.586 0.512,0 1.024,-0.195 1.414,-0.586 0.781,-0.781 0.781,-2.047 0,-2.828 z"
     id="path1"
     style="fill:#ff0000;fill-opacity:1" /></svg>
