<?xml version="1.0" encoding="UTF-8" standalone="no"?>
<svg
   viewBox="0 0 27.982029 25.12442"
   x="0px"
   y="0px"
   version="1.1"
   id="svg2"
   sodipodi:docname="noun-warning-4718327.svg"
   width="27.982029"
   height="25.12442"
   inkscape:version="1.3.2 (091e20e, 2023-11-25)"
   xmlns:inkscape="http://www.inkscape.org/namespaces/inkscape"
   xmlns:sodipodi="http://sodipodi.sourceforge.net/DTD/sodipodi-0.dtd"
   xmlns="http://www.w3.org/2000/svg"
   xmlns:svg="http://www.w3.org/2000/svg">
  <defs
     id="defs2" />
  <sodipodi:namedview
     id="namedview2"
     pagecolor="#ffffff"
     bordercolor="#000000"
     borderopacity="0.25"
     inkscape:showpageshadow="2"
     inkscape:pageopacity="0.0"
     inkscape:pagecheckerboard="0"
     inkscape:deskcolor="#d1d1d1"
     inkscape:zoom="5.9"
     inkscape:cx="13.898305"
     inkscape:cy="16.610169"
     inkscape:window-width="1440"
     inkscape:window-height="449"
     inkscape:window-x="0"
     inkscape:window-y="25"
     inkscape:window-maximized="0"
     inkscape:current-layer="svg2" />
  <g
     data-name="Layer 19"
     id="g1"
     transform="translate(-2.0089857,-3.4355804)"
     style="fill:#91692a;fill-opacity:1">
    <path
       d="M 29.56,23.68 18.82,5.07 a 3.25,3.25 0 0 0 -5.64,0 L 2.44,23.68 a 3.26,3.26 0 0 0 2.82,4.88 h 21.48 a 3.26,3.26 0 0 0 2.82,-4.88 z m -1.73,2.25 a 1.23,1.23 0 0 1 -1.09,0.63 H 5.26 a 1.23,1.23 0 0 1 -1.09,-0.63 1.22,1.22 0 0 1 0,-1.25 L 14.92,6.07 a 1.24,1.24 0 0 1 2.16,0 l 10.75,18.61 a 1.22,1.22 0 0 1 0,1.25 z M 15,19.36 v -8.45 a 1,1 0 0 1 2,0 v 8.45 a 1,1 0 0 1 -2,0 z m 2.53,3.7 A 1.53,1.53 0 1 1 16,21.53 a 1.54,1.54 0 0 1 1.53,1.53 z"
       id="path1"
       style="fill:#91692a;fill-opacity:1" />
  </g>
  <text
     x="-2.0089858"
     y="43.564419"
     fill="#000000"
     font-size="5px"
     font-weight="bold"
     font-family="'Helvetica Neue', Helvetica, Arial-Unicode, Arial, Sans-serif"
     id="text1">Created by Humam</text>
  <text
     x="-2.0089858"
     y="48.564419"
     fill="#000000"
     font-size="5px"
     font-weight="bold"
     font-family="'Helvetica Neue', Helvetica, Arial-Unicode, Arial, Sans-serif"
     id="text2">from the Noun Project</text>
</svg>
