<?xml version="1.0" encoding="UTF-8" standalone="no"?>
<svg
   version="1.1"
   viewBox="-5 -10 110.40254 110.403"
   id="svg3"
   sodipodi:docname="estimate-icon.svg"
   width="110.40254"
   height="110.403"
   inkscape:version="1.3.2 (091e20e, 2023-11-25)"
   xmlns:inkscape="http://www.inkscape.org/namespaces/inkscape"
   xmlns:sodipodi="http://sodipodi.sourceforge.net/DTD/sodipodi-0.dtd"
   xmlns="http://www.w3.org/2000/svg"
   xmlns:svg="http://www.w3.org/2000/svg">
  <defs
     id="defs3" />
  <sodipodi:namedview
     id="namedview3"
     pagecolor="#ffffff"
     bordercolor="#000000"
     borderopacity="0.25"
     inkscape:showpageshadow="2"
     inkscape:pageopacity="0.0"
     inkscape:pagecheckerboard="0"
     inkscape:deskcolor="#d1d1d1"
     inkscape:zoom="1.7481481"
     inkscape:cx="80.656782"
     inkscape:cy="54.915256"
     inkscape:window-width="1440"
     inkscape:window-height="449"
     inkscape:window-x="0"
     inkscape:window-y="25"
     inkscape:window-maximized="0"
     inkscape:current-layer="svg3" />
  <ellipse
     style="fill:#eff1f4;stroke:#e6ebef;stroke-width:0;fill-opacity:1"
     id="path3"
     cx="50.201271"
     cy="45.2015"
     rx="55.201271"
     ry="55.2015"
     inkscape:label="path3" />
  <path
     d="M 80.165337,67.840594 H 73.648423 V 42.800517 c 0,-0.59878 -0.517211,-1.088684 -1.149365,-1.088684 h -9.194915 c -0.632154,0 -1.149364,0.489904 -1.149364,1.088684 v 25.040077 h -5.36755 V 48.603811 c 0,-0.598779 -0.517211,-1.088683 -1.149365,-1.088683 h -9.194915 c -0.632154,0 -1.149365,0.489904 -1.149365,1.088683 V 67.840594 H 39.926035 V 51.509987 c 0,-0.598779 -0.517211,-1.088683 -1.149365,-1.088683 h -9.194915 c -0.632154,0 -1.149365,0.489904 -1.149365,1.088683 V 67.840594 H 21.536204 V 34.091046 c 0,-0.59878 -0.517211,-1.088684 -1.149364,-1.088684 -0.632154,0 -1.149365,0.489904 -1.149365,1.088684 v 34.837883 c 0,0.59878 0.517211,1.088684 1.149365,1.088684 h 59.766949 c 0.632154,0 1.149364,-0.489904 1.149364,-1.088684 0,-0.59878 -0.51721,-1.088684 -1.149364,-1.088684 z m -49.423037,0 V 52.59902 h 6.896187 v 15.241574 z m 16.861268,0 V 49.692147 h 6.896187 v 18.148447 z m 16.849498,0 V 43.889549 h 6.896186 v 23.951045 z"
     id="path1"
     style="stroke-width:1.016;stroke-dasharray:none;stroke:#182335;stroke-opacity:1;fill:#182335;fill-opacity:1" />
  <path
     d="m 26.524409,48.244284 c 0.160911,0 0.321822,-0.03266 0.471236,-0.09798 l 16.631027,-7.109018 h 9.57448 c 0.310333,0 0.60916,-0.119759 0.827543,-0.337496 l 15.8844,-15.655447 v 3.233373 c 0,0.59878 0.517211,1.088684 1.149365,1.088684 0.632153,0 1.149364,-0.489904 1.149364,-1.088684 v -5.802667 c 0,-0.59878 -0.517211,-1.088684 -1.149364,-1.088684 h -6.068645 c -0.632154,0 -1.149364,0.489904 -1.149364,1.088684 0,0.598779 0.51721,1.088684 1.149364,1.088684 h 3.241172 L 52.707349,38.859656 h -9.333207 c -0.160911,0 -0.321822,0.03266 -0.471235,0.09798 l -16.861268,7.207261 c -0.574682,0.250401 -0.839018,0.892686 -0.574682,1.437062 0.195388,0.40281 0.609159,0.642327 1.04594,0.642327 z"
     id="path2"
     style="stroke-width:1.016;stroke-dasharray:none;stroke:#182335;stroke-opacity:1;fill:#182335;fill-opacity:1" />
</svg>
