<?xml version="1.0" encoding="UTF-8" standalone="no"?>
<svg
   version="1.1"
   viewBox="-5 -10 93.965973 90.016137"
   id="svg2"
   sodipodi:docname="etoile-icone.svg"
   width="93.965973"
   height="90.016136"
   inkscape:version="1.4.2 (ebf0e940, 2025-05-08)"
   xmlns:inkscape="http://www.inkscape.org/namespaces/inkscape"
   xmlns:sodipodi="http://sodipodi.sourceforge.net/DTD/sodipodi-0.dtd"
   xmlns="http://www.w3.org/2000/svg"
   xmlns:svg="http://www.w3.org/2000/svg">
  <defs
     id="defs2" />
  <sodipodi:namedview
     id="namedview2"
     pagecolor="#ffffff"
     bordercolor="#000000"
     borderopacity="0.25"
     inkscape:showpageshadow="2"
     inkscape:pageopacity="0.0"
     inkscape:pagecheckerboard="0"
     inkscape:deskcolor="#d1d1d1"
     inkscape:zoom="2.369923"
     inkscape:cx="77.639652"
     inkscape:cy="52.111397"
     inkscape:window-width="1440"
     inkscape:window-height="900"
     inkscape:window-x="0"
     inkscape:window-y="0"
     inkscape:window-maximized="0"
     inkscape:current-layer="svg2" />
  <path
     d="m 46.474669,-5.7297448 11.016,23.4489998 26.012,3.2891 c 1.8594,0.40234 3.2188,1.5078 3.8164,3.3477 h 0.0039 c 0.59766,1.8438 0.08594,3.8359 -1.3242,5.1602 l -18.906,17.727 4.8711,25.457 c 0.57812,3.0156 -1.6445,5.7188 -4.5703,5.9062 -0.92578,0.05859 -1.8555,-0.14453 -2.707,-0.61328 l -22.707,-12.504 -22.707,12.504 c -3.668,2.0195 -8.0742,-1.1406 -7.2812,-5.2891 l 4.8711,-25.457 -18.9020001,-17.738 c -3.5469,-3.3281 -0.48828,-8.5508 2.79300005,-8.5508 v -0.0078 l 25.71500005,-3.2344 11.016,-23.4449998 c 1.793,-3.8281 7.1992,-3.8281 8.9922,0 z m 7.25,26.6759998 -11.645,-24.7269998 -0.26953,0.07422 -11.496,24.4729998 c -0.30469,0.8125 -1.0391,1.4336 -1.9609,1.5469 l -27.0230001,3.3984 v -0.0078 l -0.089844,0.32031 19.8010001,18.57 c 0.62109,0.54297 0.94531,1.3867 0.77734,2.2539 l -5.1172,26.855 0.26172,0.08594 23.836,-13.121 c 0.69922,-0.39453 1.5781,-0.42578 2.332,-0.01563 l 23.961,13.172 0.16406,-0.22656 -5.1211,-26.75 c -0.14844,-0.77734 0.09375,-1.6094 0.71094,-2.1914 l 19.934,-18.715 c 0.0039,-0.01953 0,-0.05859 -0.01563,-0.10938 h 0.0039 l -0.14453,-0.11719 -27.023,-3.4023 v -0.0078 c -0.78906,-0.09766 -1.5117,-0.58594 -1.875,-1.3594 z"
     fill-rule="evenodd"
     id="path1"
     style="stroke:#143b86;stroke-width:2.8;stroke-dasharray:none;stroke-opacity:1;fill:#143b86;fill-opacity:1.0" />
</svg>
