<?xml version="1.0" encoding="UTF-8" standalone="no"?>
<svg
   version="1.1"
   viewBox="-5 -10 95.276352 95.505607"
   id="svg2"
   sodipodi:docname="fermer-icon.svg"
   width="95.276352"
   height="95.505608"
   inkscape:version="1.3.2 (091e20e, 2023-11-25)"
   xmlns:inkscape="http://www.inkscape.org/namespaces/inkscape"
   xmlns:sodipodi="http://sodipodi.sourceforge.net/DTD/sodipodi-0.dtd"
   xmlns="http://www.w3.org/2000/svg"
   xmlns:svg="http://www.w3.org/2000/svg">
  <defs
     id="defs2" />
  <sodipodi:namedview
     id="namedview2"
     pagecolor="#ffffff"
     bordercolor="#000000"
     borderopacity="0.25"
     inkscape:showpageshadow="2"
     inkscape:pageopacity="0.0"
     inkscape:pagecheckerboard="0"
     inkscape:deskcolor="#d1d1d1"
     inkscape:zoom="1.7481481"
     inkscape:cx="47.478815"
     inkscape:cy="54.915256"
     inkscape:window-width="1440"
     inkscape:window-height="429"
     inkscape:window-x="0"
     inkscape:window-y="25"
     inkscape:window-maximized="0"
     inkscape:current-layer="svg2" />
  <path
     d="m -3.6043306,-5.2162009 c -0.9375,-0.93359 -0.92969,-2.4531 0.00391,-3.3906 0.93359,-0.9335899 2.457,-0.9257799 3.39059996,0.00781 L 42.638177,34.354009 l 42.848,-42.9529999 c 0.93359,-0.9335899 2.457,-0.9414099 3.3906,-0.00781 0.93359,0.9375 0.94141,2.457 0.0039,3.3906 l -42.859,42.9689999 42.859,42.969 c 0.9375,0.93359 0.92969,2.4531 -0.0039,3.3906 -0.93359,0.93359 -2.457,0.92578 -3.3906,-0.0078 l -42.848,-42.953 -42.84800064,42.953 c -0.93358996,0.93359 -2.45699996,0.94141 -3.39059996,0.0078 -0.93359,-0.9375 -0.94141,-2.457 -0.00391,-3.3906 l 42.8590006,-42.969 z"
     id="path1"
     style="fill:#91692a;fill-opacity:1;stroke:#91692a;stroke-width:1.4;stroke-dasharray:none;stroke-opacity:1" />
</svg>
