<?xml version="1.0" encoding="UTF-8" standalone="no"?>
<svg
   version="1.1"
   x="0px"
   y="0px"
   viewBox="0 0 66.000015 72.000031"
   id="svg2"
   sodipodi:docname="icone-logements.svg"
   width="66.000015"
   height="72.000031"
   inkscape:version="1.4.2 (ebf0e940, 2025-05-08)"
   xmlns:inkscape="http://www.inkscape.org/namespaces/inkscape"
   xmlns:sodipodi="http://sodipodi.sourceforge.net/DTD/sodipodi-0.dtd"
   xmlns="http://www.w3.org/2000/svg"
   xmlns:svg="http://www.w3.org/2000/svg">
  <defs
     id="defs2" />
  <sodipodi:namedview
     id="namedview2"
     pagecolor="#ffffff"
     bordercolor="#000000"
     borderopacity="0.25"
     inkscape:showpageshadow="2"
     inkscape:pageopacity="0.0"
     inkscape:pagecheckerboard="0"
     inkscape:deskcolor="#d1d1d1"
     inkscape:zoom="2.3168776"
     inkscape:cx="-126.4633"
     inkscape:cy="104.23511"
     inkscape:window-width="1440"
     inkscape:window-height="872"
     inkscape:window-x="0"
     inkscape:window-y="28"
     inkscape:window-maximized="0"
     inkscape:current-layer="svg2" />
  <g
     transform="translate(-16.999993,-966.36217)"
     id="g1"
     style="fill:#666666">
    <path
       d="m 48.781207,966.77032 -31,23.9994 c -0.486,0.3735 -0.7836,0.9807 -0.7812,1.5937 v 43.99888 c 10e-5,1.0471 0.9528,1.9998 2,1.9999 h 21 c 1.0472,-10e-5 1.9999,-0.9528 2,-1.9999 v -14.0001 c 0,-4.4665 3.5334,-7.9998 8,-7.9998 4.4666,0 8,3.5333 8,7.9998 v 14.0001 c 1e-4,1.0471 0.9528,1.9998 2,1.9999 h 21 c 1.0472,-10e-5 1.9999,-0.9528 2,-1.9999 v -43.99888 c 0,-0.613 -0.2952,-1.2202 -0.7812,-1.5937 l -31,-23.9994 c -0.747,-0.5851 -1.7897,-0.5017 -2.4376,0 z m 1.2188,4.0937 29,22.46806 v 41.03022 h -17 v -12.0001 c 0,-6.6132 -5.3866,-11.9997 -12,-11.9997 -6.6134,0 -12,5.3865 -12,11.9997 v 12.0001 h -17 v -41.03022 z"
       style="color:#000000;text-indent:0;text-transform:none;direction:ltr;baseline-shift:baseline;fill:#666666;enable-background:accumulate"
       fill="#000000"
       fill-opacity="1"
       stroke="none"
       marker="none"
       visibility="visible"
       display="inline"
       overflow="visible"
       id="path1" />
  </g>
</svg>
