<?xml version="1.0" encoding="UTF-8" standalone="no"?>
<svg
   version="1.1"
   viewBox="-5 -10 74.999001 93.749001"
   id="svg12"
   sodipodi:docname="icone-calcul-selectionne.svg"
   width="74.999001"
   height="93.749001"
   inkscape:version="1.4.2 (ebf0e940, 2025-05-08)"
   xmlns:inkscape="http://www.inkscape.org/namespaces/inkscape"
   xmlns:sodipodi="http://sodipodi.sourceforge.net/DTD/sodipodi-0.dtd"
   xmlns="http://www.w3.org/2000/svg"
   xmlns:svg="http://www.w3.org/2000/svg">
  <defs
     id="defs12" />
  <sodipodi:namedview
     id="namedview12"
     pagecolor="#ffffff"
     bordercolor="#000000"
     borderopacity="0.25"
     inkscape:showpageshadow="2"
     inkscape:pageopacity="0.0"
     inkscape:pagecheckerboard="0"
     inkscape:deskcolor="#d1d1d1"
     inkscape:zoom="2.2128514"
     inkscape:cx="43.38294"
     inkscape:cy="101.90472"
     inkscape:window-width="1440"
     inkscape:window-height="872"
     inkscape:window-x="0"
     inkscape:window-y="28"
     inkscape:window-maximized="0"
     inkscape:current-layer="svg12" />
  <path
     d="M 55.937,-10 H 9.062 C 1.312,-10 -5,-3.6875 -5,4.062 v 65.625 c 0,7.75 6.3125,14.062 14.062,14.062 h 46.875 c 7.75,0 14.062,-6.3125 14.062,-14.062 V 4.062 C 69.999,-3.688 63.6865,-10 55.937,-10 Z m 10.938,79.688 c 0,6.0312 -4.9062,10.938 -10.938,10.938 H 9.062 c -6.0312,0 -10.938,-4.9062 -10.938,-10.938 V 4.063 c 0,-6.0312 4.9062,-10.938 10.938,-10.938 h 46.875 c 6.0312,0 10.938,4.9062 10.938,10.938 z"
     id="path1"
     style="fill:#143b86;fill-opacity:1" />
  <path
     d="m 35.624,27.5 h -6.25 c -2.5781,0 -4.6875,2.1094 -4.6875,4.6875 v 3.125 c 0,2.5781 2.1094,4.6875 4.6875,4.6875 h 6.25 c 2.5781,0 4.6875,-2.1094 4.6875,-4.6875 v -3.125 C 40.3115,29.6094 38.2021,27.5 35.624,27.5 Z m 1.5625,7.8125 c 0,0.85938 -0.70312,1.5625 -1.5625,1.5625 h -6.25 c -0.85938,0 -1.5625,-0.70312 -1.5625,-1.5625 v -3.125 c 0,-0.85938 0.70312,-1.5625 1.5625,-1.5625 h 6.25 c 0.85938,0 1.5625,0.70312 1.5625,1.5625 z"
     id="path2"
     style="fill:#143b86;fill-opacity:1" />
  <path
     d="M 55.937,-0.625 H 9.062 c -2.5781,0 -4.6875,2.1094 -4.6875,4.6875 v 12.5 c 0,2.5781 2.1094,4.6875 4.6875,4.6875 h 46.875 c 2.5781,0 4.6875,-2.1094 4.6875,-4.6875 v -12.5 c 0,-2.5781 -2.1094,-4.6875 -4.6875,-4.6875 z m 1.5625,17.188 c 0,0.85938 -0.70312,1.5625 -1.5625,1.5625 H 9.062 c -0.85938,0 -1.5625,-0.70312 -1.5625,-1.5625 v -12.5 c 0,-0.85938 0.70312,-1.5625 1.5625,-1.5625 h 46.875 c 0.85938,0 1.5625,0.70312 1.5625,1.5625 z"
     id="path3"
     style="fill:#143b86;fill-opacity:1" />
  <path
     d="m 55.937,27.5 h -6.25 c -2.5781,0 -4.6875,2.1094 -4.6875,4.6875 v 3.125 c 0,2.5781 2.1094,4.6875 4.6875,4.6875 h 6.25 c 2.5781,0 4.6875,-2.1094 4.6875,-4.6875 v -3.125 C 60.6245,29.6094 58.5151,27.5 55.937,27.5 Z m 1.5625,7.8125 c 0,0.85938 -0.70312,1.5625 -1.5625,1.5625 h -6.25 c -0.85938,0 -1.5625,-0.70312 -1.5625,-1.5625 v -3.125 c 0,-0.85938 0.70312,-1.5625 1.5625,-1.5625 h 6.25 c 0.85938,0 1.5625,0.70312 1.5625,1.5625 z"
     id="path4"
     style="fill:#143b86;fill-opacity:1" />
  <path
     d="m 15.311,27.5 h -6.25 c -2.5781,0 -4.6875,2.1094 -4.6875,4.6875 v 3.125 C 4.3735,37.8906 6.4829,40 9.061,40 h 6.25 c 2.5781,0 4.6875,-2.1094 4.6875,-4.6875 v -3.125 C 19.9985,29.6094 17.8891,27.5 15.311,27.5 Z m 1.5625,7.8125 c 0,0.85938 -0.70312,1.5625 -1.5625,1.5625 h -6.25 c -0.85938,0 -1.5625,-0.70312 -1.5625,-1.5625 v -3.125 c 0,-0.85938 0.70312,-1.5625 1.5625,-1.5625 h 6.25 c 0.85938,0 1.5625,0.70312 1.5625,1.5625 z"
     id="path5"
     style="fill:#143b86;fill-opacity:1" />
  <path
     d="m 35.624,44.687 h -6.25 c -2.5781,0 -4.6875,2.1094 -4.6875,4.6875 v 3.125 c 0,2.5781 2.1094,4.6875 4.6875,4.6875 h 6.25 c 2.5781,0 4.6875,-2.1094 4.6875,-4.6875 v -3.125 c 0,-2.5781 -2.1094,-4.6875 -4.6875,-4.6875 z m 1.5625,7.8125 c 0,0.85938 -0.70312,1.5625 -1.5625,1.5625 h -6.25 c -0.85938,0 -1.5625,-0.70312 -1.5625,-1.5625 v -3.125 c 0,-0.85938 0.70312,-1.5625 1.5625,-1.5625 h 6.25 c 0.85938,0 1.5625,0.70312 1.5625,1.5625 z"
     id="path6"
     style="fill:#143b86;fill-opacity:1" />
  <path
     d="m 55.937,44.687 h -6.25 c -2.5781,0 -4.6875,2.1094 -4.6875,4.6875 v 20.312 c 0,2.5781 2.1094,4.6875 4.6875,4.6875 h 6.25 c 2.5781,0 4.6875,-2.1094 4.6875,-4.6875 v -20.312 c 0,-2.5781 -2.1094,-4.6875 -4.6875,-4.6875 z m 1.5625,25 c 0,0.85938 -0.70312,1.5625 -1.5625,1.5625 h -6.25 c -0.85938,0 -1.5625,-0.70312 -1.5625,-1.5625 V 49.375 c 0,-0.85938 0.70312,-1.5625 1.5625,-1.5625 h 6.25 c 0.85938,0 1.5625,0.70312 1.5625,1.5625 z"
     id="path7"
     style="fill:#143b86;fill-opacity:1" />
  <path
     d="m 15.311,44.687 h -6.25 c -2.5781,0 -4.6875,2.1094 -4.6875,4.6875 v 3.125 c 0,2.5781 2.1094,4.6875 4.6875,4.6875 h 6.25 c 2.5781,0 4.6875,-2.1094 4.6875,-4.6875 v -3.125 c 0,-2.5781 -2.1094,-4.6875 -4.6875,-4.6875 z m 1.5625,7.8125 c 0,0.85938 -0.70312,1.5625 -1.5625,1.5625 h -6.25 c -0.85938,0 -1.5625,-0.70312 -1.5625,-1.5625 v -3.125 c 0,-0.85938 0.70312,-1.5625 1.5625,-1.5625 h 6.25 c 0.85938,0 1.5625,0.70312 1.5625,1.5625 z"
     id="path8"
     style="fill:#143b86;fill-opacity:1" />
  <path
     d="m 35.624,61.875 h -6.25 c -2.5781,0 -4.6875,2.1094 -4.6875,4.6875 v 3.125 c 0,2.5781 2.1094,4.6875 4.6875,4.6875 h 6.25 c 2.5781,0 4.6875,-2.1094 4.6875,-4.6875 v -3.125 c 0,-2.5781 -2.1094,-4.6875 -4.6875,-4.6875 z m 1.5625,7.8125 c 0,0.85938 -0.70312,1.5625 -1.5625,1.5625 h -6.25 c -0.85938,0 -1.5625,-0.70312 -1.5625,-1.5625 v -3.125 C 27.8115,65.70312 28.51462,65 29.374,65 h 6.25 c 0.85938,0 1.5625,0.70312 1.5625,1.5625 z"
     id="path9"
     style="fill:#143b86;fill-opacity:1" />
  <path
     d="m 15.311,61.875 h -6.25 c -2.5781,0 -4.6875,2.1094 -4.6875,4.6875 v 3.125 c 0,2.5781 2.1094,4.6875 4.6875,4.6875 h 6.25 c 2.5781,0 4.6875,-2.1094 4.6875,-4.6875 v -3.125 c 0,-2.5781 -2.1094,-4.6875 -4.6875,-4.6875 z m 1.5625,7.8125 c 0,0.85938 -0.70312,1.5625 -1.5625,1.5625 h -6.25 c -0.85938,0 -1.5625,-0.70312 -1.5625,-1.5625 v -3.125 C 7.4985,65.70312 8.20162,65 9.061,65 h 6.25 c 0.85938,0 1.5625,0.70312 1.5625,1.5625 z"
     id="path10"
     style="fill:#143b86;fill-opacity:1" />
  <path
     d="m 51.249,5.625 c -0.85938,0 -1.5625,0.70312 -1.5625,1.5625 v 6.25 c 0,0.85938 0.70312,1.5625 1.5625,1.5625 0.85938,0 1.5625,-0.70312 1.5625,-1.5625 v -6.25 c 0,-0.85938 -0.70312,-1.5625 -1.5625,-1.5625 z"
     id="path11"
     style="fill:#143b86;fill-opacity:1" />
</svg>
