<?xml version="1.0" encoding="UTF-8" standalone="no"?>
<svg
   version="1.1"
   viewBox="-5 -10 87.506927 87.500198"
   id="svg4"
   sodipodi:docname="icone-placement-selectionne.svg"
   width="87.506927"
   height="87.500198"
   inkscape:version="1.4.2 (ebf0e940, 2025-05-08)"
   xmlns:inkscape="http://www.inkscape.org/namespaces/inkscape"
   xmlns:sodipodi="http://sodipodi.sourceforge.net/DTD/sodipodi-0.dtd"
   xmlns="http://www.w3.org/2000/svg"
   xmlns:svg="http://www.w3.org/2000/svg">
  <defs
     id="defs4" />
  <sodipodi:namedview
     id="namedview4"
     pagecolor="#ffffff"
     bordercolor="#000000"
     borderopacity="0.25"
     inkscape:showpageshadow="2"
     inkscape:pageopacity="0.0"
     inkscape:pagecheckerboard="0"
     inkscape:deskcolor="#d1d1d1"
     inkscape:zoom="2.8237373"
     inkscape:cx="35.059918"
     inkscape:cy="78.088"
     inkscape:window-width="1440"
     inkscape:window-height="872"
     inkscape:window-x="0"
     inkscape:window-y="28"
     inkscape:window-maximized="0"
     inkscape:current-layer="svg4" />
  <path
     d="m 55.938453,24.376427 c -6.5273,0 -12.504,2.3789 -17.137,6.2969 -4.0234,-0.74609 -8.8242,-1.1875 -13.762,-1.2656 v -6.2969 l 3.8594,-4.4375 c 19.773,3.418 22.93,-17.4139997 23.059,-27.1049997 0.02344,-0.92578 -0.86719,-1.6953003 -1.7812,-1.5508 -10.641,1.6406 -29.621,8.0312 -23.633,26.6049997 l -3.0625,3.5234 -3.0625,-3.5234 C 26.414753,-1.9864727 7.3526531,-8.3544727 -3.2183469,-9.9824727 c -0.91016,-0.1406203 -1.8047,0.62109 -1.7812,1.5508 0.12891,9.7617 3.3125,30.5159997 23.0589999,27.1049997 l 3.8594,4.4375 v 6.2969 c -9.457,0.17578 -24.9919999,1.9531 -24.9919999,7.7969 v 9.375 c 0.00391,4.6719 -0.00391,14.078 0,18.75 1.1641,9.2812 33.6639999,8.5234 42.5199999,6.3906 16.926,13.824 43.254,1.25 43.059,-20.781 0,-14.648 -11.914,-26.562 -26.562,-26.562 z m -24.328,-22.8049997 c 4.3594,-5.0156 13.273,-7.3242 17.145,-8.1211 -0.65234,9.793 -3.6445,23.5549997 -17.375,22.3709997 l 9.1602,-10.5389997 c 0.56641,-0.65234 0.49609,-1.6406 -0.15234,-2.2031 -0.65234,-0.56641 -1.6406,-0.49609 -2.2031,0.15234 l -9.1602,10.5349997 c -0.63672,-3.0156 -0.95703,-8.1171997 2.5859,-12.1949997 z M 3.8604531,11.559727 c -4.36330002,-5.0155997 -5.4062,-14.1679997 -5.6562,-18.1089997 9.5547,1.9609 22.8549999,6.94919997 19.7339999,20.3199997 L 8.7780531,3.2357273 c -0.56641,-0.64844 -1.5508,-0.71875 -2.2031,-0.15234 -0.65234,0.56641 -0.71875,1.5547 -0.15234,2.2031 L 15.582813,15.821487 c -3.0742,0.20703 -8.1718999,-0.17969 -11.7189999,-4.2617 z m 18.0549999,20.977 v 4.3398 c 0,0.86328 0.69922,1.5625 1.5625,1.5625 0.86328,0 1.5625,-0.69922 1.5625,-1.5625 v -4.3438 c 3.8789,0.0625 7.6602,0.35547 11.016,0.85156 -2.1133,2.3906 -3.7969,5.1562 -4.9453,8.1914 -7.543,0.67969 -17.301,0.25 -23.8049999,-1.2109 -6,-1.332 -7.26170002,-2.9062 -7.26170002,-3.1641 0,-1.3125 7.66410002,-4.4453 21.86699992,-4.668 z m 6.8164,27.957 c -7.8477,0.37109 -16.41,0.07031 -23.9379999,-2.0312 -1.8984,-0.64844 -3.82810002,-1.1602 -4.75000002,-2.5078 v -5.3906 c 4.00000002,1.9844 8.30860002,2.668 12.78899992,3.2422 5.4883,0.60547 11.25,0.74219 16.758,0.39062 0.26172,2.125 0.78125,4.1719 1.5195,6.1133 -0.79297,0.0625 -1.582,0.13672 -2.3828,0.18359 z m -27.7069999,-18.84 c 8.6094,3.4258 19.1599999,3.6367 29.0979999,3.1406 -0.47266,2.0156 -0.76953,4.1211 -0.73828,6.2773 -8.0898,0.46094 -16.832,0.16016 -24.5859999,-1.9844 -1.9023,-0.64844 -3.82420002,-1.1602 -4.75000002,-2.5078 v -5.3906 c 0.32422,0.15625 0.64062,0.3125 0.97656002,0.46875 z m -0.97656002,23.676 v -5.3906 c 4.86330002,2.3945 10.45699992,3.0312 15.87499992,3.5391 5.457,0.41797 11.113,0.375 16.547,-0.12891 1.1094,2.0898 2.5,4 4.1016,5.7109 -3.8945,0.61719 -8.4219,0.95312 -13.09,0.95312 -15.2229999,0 -23.43799992,-3.3281 -23.43799992,-4.6875 z m 55.89099992,9.0469 c -12.922,0 -23.438,-10.516 -23.438,-23.438 1.2891,-31.094 45.594,-31.082 46.875,0 0,12.922 -10.516,23.438 -23.438,23.438 z"
     id="path1"
     style="fill:#143b86;fill-opacity:1" />
  <path
     d="m 55.938453,32.189427 c -10.34,0 -18.75,8.4102 -18.75,18.75 1.0312,24.875 36.473,24.867 37.5,0 0,-10.34 -8.4102,-18.75 -18.75,-18.75 z m 0,34.375 c -8.6172,0 -15.625,-7.0078 -15.625,-15.625 0.85938,-20.73 30.395,-20.723 31.25,0 0,8.6172 -7.0078,15.625 -15.625,15.625 z"
     id="path2"
     style="fill:#143b86;fill-opacity:1" />
  <path
     d="m 55.938453,44.689427 c 1.293,0 2.3438,1.0508 2.3438,2.3438 0.03516,2.0547 3.0898,2.0547 3.125,0 0,-2.4688 -1.6562,-4.5352 -3.9062,-5.2148 v -1.0352 c 0,-0.86328 -0.69922,-1.5625 -1.5625,-1.5625 -0.86328,0 -1.5625,0.69922 -1.5625,1.5625 v 1.0352 c -2.25,0.67578 -3.9062,2.7461 -3.9062,5.2148 0.05469,3.4219 2.9922,4.3633 5.25,5.5391 1.957,0.96094 2.5625,1.3984 2.5625,2.2734 -0.05469,3.0781 -4.6328,3.082 -4.6875,0 -0.03516,-2.0547 -3.0898,-2.0508 -3.125,0 0,2.4688 1.6562,4.5352 3.9062,5.2148 v 1.0352 c 0,0.86328 0.69922,1.5625 1.5625,1.5625 0.86328,0 1.5625,-0.69922 1.5625,-1.5625 v -1.0352 c 2.25,-0.67578 3.9062,-2.7461 3.9062,-5.2148 0,-2.957 -2.3906,-4.1328 -4.3125,-5.0781 -1.4727,-0.70703 -3.7383,-1.7148 -3.5,-2.7344 0,-1.293 1.0508,-2.3438 2.3438,-2.3438 z"
     id="path3"
     style="fill:#143b86;fill-opacity:1" />
</svg>
