<?xml version="1.0" encoding="UTF-8" standalone="no"?>
<svg
   version="1.1"
   x="0px"
   y="0px"
   viewBox="0 0 83.433998 74.289001"
   enable-background="new 0 0 100 100"
   xml:space="preserve"
   id="svg2"
   sodipodi:docname="logout-icon.svg"
   width="83.433998"
   height="74.289001"
   inkscape:version="1.3.2 (091e20e, 2023-11-25)"
   xmlns:inkscape="http://www.inkscape.org/namespaces/inkscape"
   xmlns:sodipodi="http://sodipodi.sourceforge.net/DTD/sodipodi-0.dtd"
   xmlns="http://www.w3.org/2000/svg"
   xmlns:svg="http://www.w3.org/2000/svg"><defs
     id="defs2" /><sodipodi:namedview
     id="namedview2"
     pagecolor="#ffffff"
     bordercolor="#000000"
     borderopacity="0.25"
     inkscape:showpageshadow="2"
     inkscape:pageopacity="0.0"
     inkscape:pagecheckerboard="0"
     inkscape:deskcolor="#d1d1d1"
     inkscape:zoom="1.888"
     inkscape:cx="41.313559"
     inkscape:cy="49.788136"
     inkscape:window-width="1440"
     inkscape:window-height="449"
     inkscape:window-x="0"
     inkscape:window-y="25"
     inkscape:window-maximized="0"
     inkscape:current-layer="svg2" /><path
     d="m 47.533,64.784 c 0,0.583 -0.475,1.056 -1.057,1.056 H 18.133 V 8.451 h 28.344 c 0.582,0 1.057,0.474 1.057,1.056 v 16.342 h 8.449 V 9.506 C 55.983,4.264 51.719,0 46.477,0 H 9.506 C 4.264,0 0,4.264 0,9.506 v 55.277 c 0,5.242 4.264,9.506 9.506,9.506 h 36.971 c 5.242,0 9.506,-4.264 9.506,-9.506 V 48.442 h -8.449 v 16.342 z m 17.727,-45.812 -5.975,5.975 7.971,7.974 H 23.588 v 8.45 H 67.26 l -7.975,7.974 5.975,5.975 18.174,-18.174 z"
     id="path1"
     style="fill:#ffffff" /></svg>
