<?xml version="1.0" encoding="UTF-8" standalone="no"?>
<svg
   version="1.1"
   viewBox="-5 -10 110.40254 110.403"
   id="svg3"
   sodipodi:docname="notary-icon.svg"
   width="110.40254"
   height="110.403"
   inkscape:version="1.3.2 (091e20e, 2023-11-25)"
   xmlns:inkscape="http://www.inkscape.org/namespaces/inkscape"
   xmlns:sodipodi="http://sodipodi.sourceforge.net/DTD/sodipodi-0.dtd"
   xmlns="http://www.w3.org/2000/svg"
   xmlns:svg="http://www.w3.org/2000/svg">
  <defs
     id="defs3" />
  <sodipodi:namedview
     id="namedview3"
     pagecolor="#ffffff"
     bordercolor="#000000"
     borderopacity="0.25"
     inkscape:showpageshadow="2"
     inkscape:pageopacity="0.0"
     inkscape:pagecheckerboard="0"
     inkscape:deskcolor="#d1d1d1"
     inkscape:zoom="3.3129433"
     inkscape:cx="66.708055"
     inkscape:cy="55.539738"
     inkscape:window-width="1440"
     inkscape:window-height="449"
     inkscape:window-x="0"
     inkscape:window-y="25"
     inkscape:window-maximized="0"
     inkscape:current-layer="svg3" />
  <ellipse
     style="fill:#eff1f4;stroke:#e6ebef;stroke-width:0;fill-opacity:1"
     id="path3"
     cx="50.201271"
     cy="45.2015"
     rx="55.201271"
     ry="55.2015"
     inkscape:label="path3" />
  <path
     d="m 33.687629,26.937574 h 33.157624 c 1.024603,0 1.853831,-0.814005 1.853831,-1.819798 v -3.357022 c 0,-1.005793 -0.829228,-1.819798 -1.853831,-1.819798 H 33.687629 c -1.024603,0 -1.853831,0.814005 -1.853831,1.819798 v 3.349258 c 0,1.003204 0.829228,1.827562 1.853831,1.827562 z m -0.633785,-5.17682 c 0,-0.34218 0.287843,-0.622151 0.633785,-0.622151 l 33.157624,-0.0026 c 0.348586,0 0.633786,0.282559 0.633786,0.62215 v 3.349259 c 0,0.342179 -0.287844,0.62215 -0.633786,0.62215 l -33.157624,0.0026 c -0.348585,0 -0.633785,-0.282559 -0.633785,-0.62215 z"
     id="path1"
     style="stroke-width:1.47;stroke:#212529;stroke-opacity:1;stroke-dasharray:none;fill:#000000" />
  <path
     d="M 66.845253,32.378649 H 33.687629 c -0.338019,0 -0.615302,0.272194 -0.615302,0.604007 0,0.331813 0.277283,0.604007 0.615302,0.604007 l 33.157624,-0.0026 c 0.338019,0 0.615303,-0.272193 0.615303,-0.604006 -0.0026,-0.331814 -0.277284,-0.601412 -0.615303,-0.601412 z"
     id="path2"
     style="stroke-width:1.47;stroke:#212529;stroke-opacity:1;stroke-dasharray:none;fill:#000000" />
  <path
     d="m 33.687629,39.88825 h 31.251198 c 0.338019,0 0.615302,-0.272193 0.615302,-0.604007 0,-0.331813 -0.277283,-0.604006 -0.615302,-0.604006 l -31.251198,0.0026 c -0.338019,0 -0.615302,0.272193 -0.615302,0.604007 0.01057,0.329218 0.287843,0.601411 0.615302,0.601411 z"
     id="path3-4"
     style="stroke-width:1.47;stroke:#212529;stroke-opacity:1;stroke-dasharray:none;fill:#000000" />
  <path
     d="M 65.82038,44.997513 H 33.687629 c -0.338019,0 -0.615302,0.272193 -0.615302,0.604006 0,0.331813 0.277283,0.604007 0.615302,0.604007 l 32.132751,-0.0026 c 0.338019,0 0.615303,-0.272193 0.615303,-0.604006 -0.01057,-0.331813 -0.277284,-0.601412 -0.615303,-0.601412 z"
     id="path4"
     style="stroke-width:1.17;stroke:#000000;stroke-opacity:1;stroke-dasharray:none" />
  <path
     d="m 51.121308,54.922548 h 3.48315 c 0.338019,0 0.615302,-0.272193 0.615302,-0.604007 0,-0.331813 -0.277283,-0.604006 -0.615302,-0.604006 h -3.48315 c -0.338018,0 -0.615302,0.272193 -0.615302,0.604006 0.0026,0.331814 0.277284,0.604007 0.615302,0.604007 z"
     id="path5"
     style="stroke-width:0.97;stroke-dasharray:none;stroke:#212529;stroke-opacity:1" />
  <path
     d="m 51.414358,59.425671 c 0,0.331813 0.277284,0.604007 0.615303,0.604007 h 6.063247 c 0.338019,0 0.615303,-0.272194 0.615303,-0.604007 0,-0.331813 -0.277284,-0.604006 -0.615303,-0.604006 h -6.063247 c -0.340662,0 -0.615303,0.272193 -0.615303,0.604006 z"
     id="path6"
     style="stroke:#212529;stroke-width:0.97;stroke-dasharray:none;stroke-opacity:1" />
  <path
     d="m 51.716204,64.522739 c 0,0.331814 0.277284,0.604007 0.615303,0.604007 h 14.513854 c 0.338019,0 0.615303,-0.272193 0.615303,-0.604007 0,-0.331813 -0.277284,-0.604006 -0.615303,-0.604006 H 52.328803 c -0.338019,0.01037 -0.61266,0.272193 -0.61266,0.604006 z"
     id="path7"
     style="stroke-width:0.97;stroke-dasharray:none;stroke:#212529;stroke-opacity:1" />
  <path
     d="m 49.247314,56.115915 c 0,-0.01037 0,-0.02074 0.01057,-0.02074 0.295766,-1.055034 -0.245591,-2.161963 -1.280754,-2.584494 -0.316892,-0.129613 -0.544001,-0.401806 -0.594176,-0.73364 -0.184856,-1.086158 -1.167247,-1.861274 -2.305424,-1.799026 -0.327459,0.02074 -0.654912,-0.129613 -0.85032,-0.391433 l -0.01057,-0.01037 c -0.654911,-0.904722 -1.885537,-1.176875 -2.867887,-0.642888 -0.295767,0.160724 -0.654912,0.160724 -0.953349,0 -0.98235,-0.534014 -2.202395,-0.261821 -2.857341,0.62215 0,0.01037 -0.01057,0.01037 -0.01057,0.02074 -0.195416,0.272193 -0.512308,0.422545 -0.860867,0.401806 -1.117017,-0.05962 -2.109981,0.712868 -2.29481,1.760138 0,0.01037 -0.01057,0.03111 -0.01057,0.04925 -0.06074,0.331813 -0.277284,0.604007 -0.594177,0.73364 -1.045763,0.422544 -1.587134,1.537225 -1.280753,2.605265 0,0.01037 0,0.01037 0.01057,0.02074 0.08186,0.321447 0.01057,0.653261 -0.224465,0.89437 -0.747359,0.824357 -0.747359,2.060893 0,2.88525 0.224465,0.251455 0.306327,0.593634 0.213905,0.915075 -0.306326,1.065452 0.235032,2.182735 1.280754,2.605266 0.306326,0.129613 0.533434,0.391433 0.594176,0.72322 v 0.02074 c 0.184856,1.086158 1.177793,1.869039 2.305424,1.799026 0.338019,-0.01037 0.665472,0.129613 0.860867,0.412172 0.654911,0.904723 1.885537,1.176876 2.867887,0.642889 0.295767,-0.160724 0.654912,-0.160724 0.953349,0 0.338018,0.181462 0.707744,0.272193 1.064218,0.272193 0.69713,0 1.373168,-0.321441 1.803669,-0.915075 0.195415,-0.272193 0.522875,-0.422545 0.860866,-0.401806 1.106471,0.05962 2.109982,-0.712868 2.305424,-1.799026 0.06074,-0.331813 0.277284,-0.604007 0.594177,-0.733639 1.045763,-0.422545 1.587134,-1.537225 1.280753,-2.605266 -0.09243,-0.321448 -0.01057,-0.663627 0.213905,-0.915075 0.74736,-0.824358 0.74736,-2.060893 -0.01057,-2.88525 -0.235031,-0.282559 -0.316893,-0.622151 -0.213905,-0.9462 z m -0.69713,2.996674 c -0.512308,0.562529 -0.686584,1.327253 -0.480622,2.050474 0.142603,0.471798 -0.102988,0.974735 -0.57305,1.166523 -0.707744,0.290336 -1.209499,0.894369 -1.330983,1.638361 -0.08186,0.482165 -0.533435,0.824358 -1.035149,0.803586 -0.757906,-0.04148 -1.484106,0.300703 -1.925153,0.915075 -0.287844,0.401806 -0.839774,0.523641 -1.280754,0.290337 -0.338019,-0.181462 -0.707744,-0.272193 -1.064218,-0.272193 -0.369705,0 -0.736746,0.09073 -1.074765,0.272193 -0.441007,0.241082 -0.992964,0.121835 -1.280754,-0.290337 -0.441006,-0.614372 -1.167246,-0.946199 -1.925152,-0.915075 -0.501749,0.0311 -0.932189,-0.311075 -1.024603,-0.793233 v -0.02074 c -0.124114,-0.743992 -0.625862,-1.358378 -1.330983,-1.638362 -0.462133,-0.191828 -0.707744,-0.684332 -0.573051,-1.166523 0.213906,-0.723221 0.03169,-1.487984 -0.480622,-2.050474 -0.338019,-0.37329 -0.338019,-0.925428 0,-1.29613 0.512308,-0.56253 0.686584,-1.327253 0.470056,-2.040121 0,-0.01037 0,-0.01037 -0.01057,-0.02074 -0.132036,-0.471799 0.113555,-0.953964 0.573051,-1.145818 0.707744,-0.290337 1.209499,-0.904723 1.320369,-1.599474 0,-0.01037 0.01057,-0.0311 0.01057,-0.04925 0.08186,-0.482165 0.522875,-0.83471 1.035149,-0.803586 0.757906,0.04148 1.46565,-0.290336 1.914539,-0.89437 0,-0.01037 0.01056,-0.01037 0.01056,-0.02074 0.287843,-0.401806 0.839774,-0.523641 1.280754,-0.282559 0.665478,0.362924 1.46565,0.362924 2.141687,0 0.430447,-0.241082 0.982351,-0.121835 1.270208,0.272193 l 0.01057,0.01037 c 0.441007,0.614372 1.167247,0.953963 1.925153,0.904722 0.522874,-0.0311 0.942735,0.321448 1.024603,0.803586 0.124113,0.743992 0.625862,1.358377 1.330983,1.638362 0.462132,0.191828 0.707744,0.684332 0.57305,1.166523 0,0.01037 0,0.02074 -0.01057,0.02074 -0.205982,0.712868 -0.02113,1.467212 0.480622,2.022004 0.356502,0.409584 0.356502,0.964317 0.02905,1.324666 z"
     id="path8"
     style="stroke-width:0.669804;stroke:#212529;stroke-opacity:1" />
  <path
     d="m 40.857686,53.83503 c -2.601191,0 -4.721718,2.081598 -4.721718,4.635035 0,2.553437 2.120527,4.635035 4.721718,4.635035 2.60119,0 4.721718,-2.081598 4.721718,-4.635035 0,-2.553437 -2.120528,-4.635035 -4.721718,-4.635035 z m 0,8.075011 c -1.925153,0 -3.50431,-1.537225 -3.50431,-3.439976 0,-1.88981 1.565974,-3.439976 3.50431,-3.439976 1.925152,0 3.504309,1.537225 3.504309,3.439976 0,1.900163 -1.579157,3.439976 -3.504309,3.439976 z"
     id="path9"
     style="stroke-width:0.17;stroke:#212529;stroke-opacity:1;stroke-dasharray:none;fill:#000000" />
  <path
     d="m 42.354433,56.751006 -2.202395,2.161964 -0.800159,-0.785469 c -0.235031,-0.230717 -0.625862,-0.230717 -0.860866,0 -0.235005,0.230716 -0.235032,0.614372 0,0.845062 l 1.227955,1.205412 c 0.124113,0.121835 0.277283,0.17109 0.430446,0.17109 0.153164,0 0.316893,-0.05962 0.430447,-0.17109 L 43.21269,57.59348 c 0.235032,-0.230716 0.235032,-0.614372 0,-0.845062 -0.235031,-0.228122 -0.612659,-0.228122 -0.85823,0.0026 z"
     id="path10"
     style="stroke-width:0.47;stroke-dasharray:none;stroke:#212529;stroke-opacity:1" />
  <path
     d="m 82.341391,55.040176 c -0.295767,-0.513275 -0.789612,-0.873598 -1.362622,-1.026564 l -6.728671,-1.770556 0.184855,-0.56253 c 0.911096,-2.72452 2.479707,-5.399732 4.814133,-8.173227 0.829228,-0.985088 1.330983,-2.193088 1.46565,-3.49957 0.277283,-2.784113 -1.394328,-5.448973 -4.045681,-6.48589 -0.98235,-0.381067 -2.038659,-0.523641 -3.073876,-0.422544 V 20.433314 c 0,-2.815237 -2.334426,-5.117159 -5.212859,-5.117159 l -44.773981,-0.0026 h -0.03169 -0.121477 c -2.519322,0 -4.579074,2.011586 -4.579074,4.49501 v 9.33192 c 0,2.444535 2.028113,4.435416 4.518366,4.435416 h 3.543925 v 39.213717 c 0,2.82559 2.334426,5.11716 5.212859,5.11716 h 0.05018 39.907188 c 2.878434,0 5.223474,-2.301989 5.223474,-5.127579 0,-1.096511 -0.359145,-2.151611 -1.02461,-3.045914 -0.113547,-0.150352 -0.295767,-0.241083 -0.491182,-0.241083 l -2.210305,-0.0026 v -6.164495 l 0.28785,0.06999 c 0.256157,0.06999 0.522868,0.101097 0.778991,0.101097 1.34153,0 2.572121,-0.873598 2.928596,-2.200851 l 0.213905,-0.793234 1.301913,0.34218 c 0.195416,0.04925 0.388195,0.08036 0.58361,0.08036 0.992965,0 1.903993,-0.653261 2.17069,-1.638362 l 0.707744,-2.574141 c 0.142603,-0.565118 0.0713,-1.158759 -0.237668,-1.672008 z M 76.217435,34.638962 c 2.120528,0.83471 3.504309,3.045914 3.287775,5.259773 -0.102988,1.065453 -0.512309,2.050474 -1.18834,2.846362 -2.42684,2.88525 -4.077319,5.690069 -5.02803,8.557467 l -0.205982,0.62215 -4.180347,-1.106929 0.132036,-0.632516 c 0.654912,-3.045914 0.654912,-6.353696 0.01057,-9.824995 -0.142603,-0.754344 -0.113554,-1.519108 0.09243,-2.273452 0.388194,-1.428324 1.394328,-2.623383 2.735857,-3.297429 1.362622,-0.653261 2.91014,-0.712868 4.344083,-0.150351 z M 26.937663,32.378517 h -3.543925 c -1.822125,0 -3.298321,-1.449096 -3.298321,-3.237769 v -9.33192 c 0,-1.819797 1.505266,-3.297429 3.359096,-3.297429 h 0.06074 0.01057 0.09243 c 1.832671,0.02074 3.330027,1.487984 3.330027,3.297429 v 12.569755 z m 49.176338,40.400934 c 0,2.172316 -1.793055,3.932519 -4.006064,3.932519 l -36.58784,-0.0026 c 1.146087,-0.946199 1.874923,-2.353817 1.874923,-3.932519 0,-0.723221 -0.153163,-1.438743 -0.451573,-2.081598 h 36.04363 0.01055 0.01055 2.498162 c 0.393475,0.624745 0.60738,1.340194 0.60738,2.084186 z m -3.7393,-3.289598 H 35.879479 c -0.235031,0 -0.441007,0.129613 -0.544001,0.331813 -0.102988,0.202201 -0.08186,0.443283 0.05018,0.622151 0.512308,0.684331 0.789612,1.487983 0.789612,2.333046 0,2.172316 -1.793055,3.932519 -4.006065,3.932519 h -0.01057 -0.01057 c -2.202396,0 -3.984904,-1.760137 -3.984904,-3.922167 l 0.0026,-52.524732 v -0.453648 c 0,-1.29613 -0.57305,-2.473072 -1.476196,-3.297429 h 41.700713 c 2.202396,0 3.995519,1.760137 3.995519,3.911748 v 12.92015 c -0.359145,0.101097 -0.71829,0.230716 -1.056309,0.401806 -1.658389,0.814005 -2.88898,2.29157 -3.369643,4.051773 -0.256157,0.925428 -0.287843,1.861274 -0.124114,2.794466 0.615303,3.318134 0.615303,6.465185 -0.01057,9.360456 l -0.124114,0.56253 -6.728671,-1.770556 c -1.198886,-0.311075 -2.426841,0.381067 -2.754313,1.557996 l -0.707744,2.574142 c -0.316893,1.176876 0.388194,2.382287 1.587133,2.703748 l 1.301914,0.342186 -0.213905,0.793233 c -0.430447,1.578702 0.522875,3.217064 2.141687,3.639595 l 10.037809,2.644154 V 69.4899 Z m 4.035134,-8.495086 c -0.256157,0.946199 -1.259661,1.508689 -2.212942,1.257241 L 62.654225,59.216446 C 61.69033,58.964991 61.117321,57.990263 61.373471,57.04413 l 0.213905,-0.793233 15.036432,3.961056 z m 4.980506,-4.585794 -0.707744,2.574142 c -0.0713,0.261821 -0.245591,0.471799 -0.480622,0.614372 -0.235032,0.129613 -0.512309,0.17109 -0.778999,0.101097 l -1.885537,-0.492537 c 0,0 -0.01055,0 -0.01055,-0.01037 h -0.01055 L 61.323215,54.931342 h -0.01061 -0.01057 l -1.885537,-0.492537 c -0.266717,-0.06999 -0.480622,-0.241083 -0.625862,-0.471799 -0.132037,-0.230717 -0.174289,-0.502903 -0.102988,-0.764697 l 0.707744,-2.574142 c 0.124114,-0.453649 0.544001,-0.743992 0.992965,-0.743992 0.09243,0 0.174289,0.01037 0.266717,0.0311 l 20.003957,5.267537 c 0.557204,0.129613 0.874117,0.681744 0.731473,1.226184 z"
     id="path11"
     style="stroke-width:0.97;stroke:#000000;stroke-opacity:1;stroke-dasharray:none;fill:#000000" />
  <path
     d="m 73.542083,41.970047 c 0.277284,0.06999 0.551924,0.11147 0.829228,0.11147 1.402238,0 2.704151,-0.925428 3.084422,-2.322694 0.451573,-1.66942 -0.551923,-3.388147 -2.252557,-3.831383 -1.700634,-0.443236 -3.451511,0.541792 -3.903037,2.211204 -0.462132,1.66942 0.551924,3.388147 2.242012,3.831383 z m -1.064218,-3.520341 c 0.235031,-0.865834 1.035149,-1.428324 1.903992,-1.428324 0.16373,0 0.338019,0.02074 0.512309,0.06999 1.045762,0.272193 1.669002,1.337606 1.394327,2.36417 -0.277283,1.026565 -1.362621,1.638362 -2.408384,1.368731 -1.064219,-0.282559 -1.690094,-1.347959 -1.402238,-2.374523 z"
     id="path12"
     style="stroke-width:0.669804" />
</svg>
